<svg width="888" height="259" viewBox="0 0 888 259" fill="none" xmlns="http://www.w3.org/2000/svg">
<path d="M888 258.328H0V90.2776C49.4558 80.4487 102.218 76.7591 153.995 79.9188C202.334 82.8784 251.528 91.5074 298.591 84.1483C311.949 82.0585 324.378 78.8089 336.241 74.8093C339.853 73.5895 343.421 72.2996 346.945 70.9598C351.818 69.08 356.589 67.1102 361.317 65.0405C361.332 65.0505 361.332 65.0405 361.332 65.0405C361.332 65.0505 361.361 65.0505 361.375 65.0305C361.811 64.8505 362.246 64.6605 362.681 64.4705C366.379 62.8407 370.034 61.1709 373.674 59.4611C380.505 56.2715 387.249 52.9618 393.993 49.6422C399.432 46.9625 404.856 44.2828 410.324 41.6331C410.338 41.6331 410.353 41.6231 410.367 41.6131C413.239 40.2333 416.11 38.8634 418.997 37.5036C426.466 34.014 434.036 30.6444 441.839 27.5347C494.776 6.40712 559.982 -3.01181 622.824 1.38769C685.666 5.78719 745.666 23.9751 789.378 51.872C820.183 71.5297 846.376 97.0768 888 105.506V258.328Z" fill="#FFD4B4"/>
<path d="M253.743 44.1978C254.541 47.919 255.981 51.4936 258.074 54.6848C266.027 66.818 283.07 71.8585 296.76 68.3854C314.939 63.7734 321.014 43.6227 314.41 27.0804C305.31 4.2459 274.948 -3.04986 259.288 17.7098C253.686 25.1409 251.796 35.1091 253.743 44.1865V44.1978Z" fill="#FFD4B4"/>
<path d="M403.843 55.7753L415.089 38.9173C416.816 36.3334 420.838 37.3285 421.148 40.4224L424.609 74.4228C424.609 74.4228 408.578 74.9663 403.843 55.7753Z" fill="#F48C12"/>
<path d="M396.56 55.7753L385.314 38.9173C383.588 36.3334 379.565 37.3285 379.255 40.4224L375.794 74.4228C375.794 74.4228 391.826 74.9663 396.56 55.7753Z" fill="#F48C12"/>
<path d="M371.981 126.05L370.263 187.135L363.66 191.944V197.546H392.991L402.787 128.124C402.787 128.124 385.633 112.044 371.973 126.059L371.981 126.05Z" fill="#C1660C"/>
<path d="M442.87 127.355L443.272 187.144L436.668 191.952V197.555H465.999L475.796 128.132C475.796 128.132 456.521 113.348 442.861 127.363L442.87 127.355Z" fill="#C1660C"/>
<path d="M371.981 126.05H428.372L424.618 74.4227C423.771 61.5868 413.095 51.6108 400.198 51.6108C387.309 51.6108 376.624 61.5868 375.778 74.4227L371.981 126.05Z" fill="#F48C12"/>
<path d="M379.255 78.1021C379.255 83.0859 383.303 87.1331 388.306 87.1331C393.309 87.1331 397.357 83.0942 397.357 78.1021C397.357 73.1099 393.309 66.9972 388.306 66.9972C383.303 66.9972 379.255 73.1099 379.255 78.1021Z" fill="#C1660C"/>
<path d="M409.835 77.0818C409.835 77.9347 410.53 78.6288 411.385 78.6288C412.24 78.6288 412.935 77.9347 412.935 77.0818C412.935 76.2288 412.24 75.5348 411.385 75.5348C410.53 75.5348 409.835 76.2288 409.835 77.0818Z" fill="#4C2600"/>
<path d="M387.435 77.0818C387.435 77.9347 388.13 78.6288 388.985 78.6288C389.84 78.6288 390.535 77.9347 390.535 77.0818C390.535 76.2288 389.84 75.5348 388.985 75.5348C388.13 75.5348 387.435 76.2288 387.435 77.0818Z" fill="#4C2600"/>
<path d="M403.114 81.6977C404.363 81.89 405.595 82.8517 405.637 84.1144C405.662 84.892 405.243 85.6112 404.799 86.2551C404.153 87.1833 403.366 88.0947 402.301 88.4877C401.229 88.8891 400.013 88.7052 398.974 88.2536C397.927 87.7937 397.022 87.0829 396.125 86.3805C395.446 85.8453 394.726 85.2265 394.608 84.3736C394.466 83.3451 395.346 82.3918 396.335 82.074C397.525 81.6894 398.488 82.2078 399.628 82.166C400.835 82.1242 401.849 81.5137 403.114 81.7061V81.6977Z" fill="#4C2600"/>
<path d="M395.857 92.2507C395.823 93.0953 395.815 93.9482 395.957 94.7761C396.108 95.6039 396.426 96.4234 397.005 97.0506C397.566 97.6526 398.329 98.0457 399.133 98.2463C400.223 98.5307 401.404 98.4972 402.443 98.0791C403.491 97.661 404.388 96.8582 404.84 95.8297C405.326 94.7175 405.284 93.4632 405.234 92.2507C404.354 91.958 403.483 91.6654 402.67 91.2138C401.865 90.7623 401.128 90.1267 400.7 89.3073C400.642 89.3156 400.591 89.324 400.533 89.3323C399.418 90.8375 397.717 91.9664 395.857 92.2507Z" fill="#E07160"/>
<path d="M413.706 88.7302C412.667 91.3141 409.29 92.5517 406.684 92.4597C405.066 92.4012 403.474 91.8493 402.15 90.9295C400.792 89.9845 400.156 88.6048 400.457 86.9324" stroke="#4C2600" stroke-miterlimit="10" stroke-linecap="round"/>
<path d="M387.435 88.7302C388.474 91.3141 391.851 92.5517 394.457 92.4597C396.075 92.4012 397.667 91.8493 398.991 90.9295C400.349 89.9845 400.985 88.6048 400.684 86.9324" stroke="#4C2600" stroke-miterlimit="10" stroke-linecap="round"/>
<path d="M400.549 94.9014V89.349" stroke="#4C2600" stroke-miterlimit="10" stroke-linecap="round"/>
<path d="M412.634 53.5844C413.111 53.5258 413.581 53.4004 414.05 53.3C414.628 53.183 415.156 53.3502 415.734 53.3C416.078 53.2666 416.204 52.8569 415.91 52.6562C415.424 52.3217 414.888 52.0625 414.393 51.728C414.117 51.5356 413.614 51.1761 413.799 50.7412C413.899 50.5071 414.477 50.2813 414.687 50.1559C414.779 50.1057 414.829 50.0305 414.854 49.9636C414.921 49.9552 414.988 49.9468 415.047 49.9385C415.491 49.8716 415.299 49.2026 414.863 49.2695C413.949 49.4033 412.935 49.4953 412.055 49.1357C412.583 47.965 413.136 46.7943 413.84 45.7156C414.486 44.7289 416.17 42.4544 417.561 43.4495C418.483 44.1017 418.667 45.8745 418.91 46.8947C419.237 48.2828 419.447 49.696 419.547 51.1175C419.648 52.5056 419.631 53.9021 419.514 55.2902C419.43 56.2602 419.187 57.7403 418.098 58.1166C417.385 58.3591 416.639 57.9326 416.011 57.5229C415.223 57.0045 414.427 56.4944 413.639 55.9759C412.91 55.4993 412.097 55.0895 411.527 54.4122C411.251 54.0861 411.083 53.7181 411 53.3419C411.444 53.6931 412.097 53.6429 412.625 53.576L412.634 53.5844Z" fill="#C1660C"/>
<path d="M415.852 43.3491C415.097 44.2773 413.229 47.2626 412.282 48.8096C412.139 49.0354 412.332 49.3197 412.6 49.2779C413.463 49.1441 414.352 49.1106 415.223 49.1775C415.525 49.2026 415.617 49.5956 415.366 49.7545L413.782 50.7914C413.564 50.9335 413.606 51.2597 413.857 51.3517C414.636 51.6276 415.366 52.0373 416.019 52.5474C416.254 52.7314 416.128 53.1077 415.835 53.1077C414.159 53.1411 412.483 53.2666 410.823 53.484C410.505 53.5258 410.446 53.9523 410.74 54.0861C413.438 55.2902 415.86 57.0881 417.922 59.212" stroke="#4C2600" stroke-miterlimit="10" stroke-linecap="round"/>
<path d="M387.242 53.5844C386.764 53.5258 386.295 53.4004 385.826 53.3C385.247 53.183 384.719 53.3502 384.141 53.3C383.798 53.2666 383.672 52.8569 383.965 52.6562C384.451 52.3217 384.988 52.0625 385.482 51.728C385.759 51.5356 386.261 51.1761 386.077 50.7412C385.977 50.5071 385.398 50.2813 385.189 50.1559C385.097 50.1057 385.046 50.0305 385.021 49.9636C384.954 49.9552 384.887 49.9468 384.828 49.9385C384.384 49.8716 384.577 49.2026 385.013 49.2695C385.926 49.4033 386.94 49.4953 387.82 49.1357C387.292 47.965 386.739 46.7943 386.035 45.7156C385.39 44.7289 383.705 42.4544 382.314 43.4495C381.393 44.1017 381.208 45.8745 380.965 46.8947C380.638 48.2828 380.429 49.696 380.328 51.1175C380.228 52.5056 380.244 53.9021 380.362 55.2902C380.446 56.2602 380.689 57.7403 381.778 58.1166C382.49 58.3591 383.236 57.9326 383.865 57.5229C384.652 57.0045 385.449 56.4944 386.236 55.9759C386.965 55.4993 387.778 55.0895 388.348 54.4122C388.625 54.0861 388.792 53.7181 388.876 53.3419C388.432 53.6931 387.778 53.6429 387.25 53.576L387.242 53.5844Z" fill="#C1660C"/>
<path d="M384.025 43.3491C384.779 44.2773 386.648 47.2626 387.594 48.8096C387.737 49.0354 387.544 49.3197 387.276 49.2779C386.413 49.1441 385.525 49.1106 384.653 49.1775C384.351 49.2026 384.259 49.5956 384.511 49.7545L386.094 50.7914C386.312 50.9335 386.27 51.2597 386.019 51.3517C385.24 51.6276 384.511 52.0373 383.857 52.5474C383.622 52.7314 383.748 53.1077 384.041 53.1077C385.717 53.1411 387.393 53.2666 389.053 53.484C389.371 53.5258 389.43 53.9523 389.136 54.0861C386.438 55.2902 384.016 57.0881 381.955 59.212" stroke="#4C2600" stroke-miterlimit="10" stroke-linecap="round"/>
<path d="M469.351 131.787L474.086 187.144L467.483 191.952V197.555H496.814L503.199 127.89C503.199 127.89 483.003 117.78 469.343 131.787H469.351Z" fill="#EECAA3"/>
<path d="M371.043 159.407L378.066 164.349C385.113 169.307 393.703 171.599 402.293 170.796L470.776 163.479L474.807 163.103L486.129 183.531L498.062 184.058L502.789 132.481C528.332 122.346 533.779 88.3456 527.544 70.1664C526.186 66.2028 520.697 65.8934 518.887 69.6647C506.736 95.0353 493.126 111.065 487.369 117.245L426.721 103.28L371.99 126.059L371.931 128.091L371.051 159.407H371.043Z" fill="#F48C12"/>
<path d="M402.971 127.823L404.019 186.416L396.427 191.944V197.546H425.757L435.554 128.124C435.554 128.124 416.623 113.817 402.963 127.823H402.971Z" fill="#F48C12"/>
<path d="M402.971 149.481L403.725 171.841" stroke="#4C2600" stroke-miterlimit="10" stroke-linecap="round"/>
<path d="M433.015 146.203C429.838 168.731 430.811 161.79 429.931 168.028" stroke="#4C2600" stroke-miterlimit="10" stroke-linecap="round"/>
<path d="M470.91 151.831L472.058 163.429" stroke="#28185E" stroke-miterlimit="10" stroke-linecap="round"/>
<path d="M500.76 125.524C500.76 125.524 503.618 128.977 502.822 133.994" stroke="#28185E" stroke-miterlimit="10" stroke-linecap="round"/>
<path d="M397.642 171.457C397.642 171.457 387.561 171.565 380.152 166.347L371.035 159.934" stroke="#4C2600" stroke-miterlimit="10" stroke-linecap="round"/>
<path d="M527.761 122.613L525.951 186.793L520.621 190.673C519.616 191.409 519.012 192.579 519.012 193.825C519.012 195.983 520.764 197.73 522.926 197.73H549.835L560.126 124.788C560.126 124.788 542.108 107.896 527.753 122.613H527.761Z" fill="#C1660C"/>
<path d="M528.816 112.955C528.749 112.679 528.649 112.42 528.523 112.169C528.423 113.516 528.33 114.77 528.247 115.907C528.791 114.987 529.076 114.026 528.816 112.955Z" fill="#F8E8DB"/>
<path d="M686.793 186.475C684.849 185.237 682.586 184.568 680.231 184.108C677.927 183.866 675.614 183.632 673.351 183.147C672.79 183.03 672.22 182.896 671.65 182.754C671.298 182.687 670.954 182.612 670.611 182.528C670.552 182.511 670.519 182.486 670.477 182.461C667.175 181.642 663.839 180.847 660.68 181.926C657.613 177.645 652.987 174.5 647.875 173.204C647.833 173.188 647.8 173.179 647.758 173.171C647.322 169.951 645.755 166.933 643.501 164.608C643.425 163.011 643.417 161.414 643.61 159.808C643.626 159.666 643.735 159.591 643.853 159.582C644.749 157.316 643.341 154.39 640.978 153.712C642.847 150.292 640.09 144.815 636.822 143.795C637.056 136.72 630.955 130.624 625.207 125.323C626.774 123.032 624.779 120.013 622.743 118.115C616.659 112.462 609.376 108.365 601.541 105.563C599.915 104.51 598.34 103.565 596.839 102.72C591.836 99.9104 587.663 98.2547 585.166 97.3935L583.23 66.9638C582.425 65.4753 581.487 64.0621 580.439 62.7409C575.235 56.1432 567.249 51.728 558.843 51.0674C553.53 50.6577 548.134 51.7615 543.332 54.061C540.851 55.2568 538.521 56.7704 536.435 58.5766C535.22 59.6218 533.384 61.0936 532.412 62.7074C532.043 63.3179 531.792 63.9534 531.75 64.5973C531.75 64.5973 530.242 88.8557 529.077 104.643C528.775 104.66 528.473 104.702 528.18 104.786C527.476 104.986 526.973 105.321 526.596 105.789C526.253 106.207 526.01 106.726 525.817 107.336C525.783 107.436 525.767 107.687 525.775 108.047C525.775 108.13 525.775 108.231 525.783 108.331C525.809 110.012 526.127 113.106 526.596 112.738C523.781 114.92 523.328 119.545 525.674 122.221C524.241 126.31 523.454 130.633 523.336 134.973C523.253 137.983 523.487 141.002 524.049 143.962C522.373 146.797 523.286 150.844 526.01 152.692C524.325 153.612 525.339 156.012 526.781 157.45V157.659L534.155 162.852C535.965 164.131 537.868 165.235 539.854 166.155C544.228 168.22 548.955 169.433 553.79 169.717C555.676 169.834 557.578 169.809 559.48 169.634C560.033 169.726 560.587 169.818 561.131 169.91L561.425 186.04L555.056 190.681C554.042 191.409 553.447 192.588 553.447 193.834C553.447 195.983 555.198 197.73 557.36 197.73H584.269L584.311 197.429H624.126C625.366 197.429 627.595 197.279 628.458 197.22C630.914 197.68 633.453 197.73 635.967 197.739C653.28 197.822 670.577 196.543 687.84 195.247C691.503 192.864 690.07 188.557 686.793 186.475Z" fill="white"/>
<path d="M552.265 89.9846C552.232 90.871 552.215 91.7657 552.374 92.6354C552.533 93.5051 552.869 94.3663 553.472 95.0186C554.059 95.6541 554.863 96.0639 555.709 96.2813C556.849 96.5823 558.089 96.5405 559.187 96.1057C560.285 95.6708 561.224 94.8179 561.701 93.7392C562.213 92.5769 562.171 91.2473 562.112 89.9762C561.19 89.6668 560.268 89.3658 559.422 88.8892C558.576 88.4125 557.805 87.7519 557.352 86.8906C557.293 86.899 557.235 86.9073 557.176 86.9241C556.003 88.5045 554.218 89.6919 552.265 89.9846Z" fill="#E07160"/>
<path d="M571.012 86.2886C569.922 89.0063 566.369 90.3024 563.637 90.202C561.936 90.1351 560.26 89.5665 558.869 88.5882C557.444 87.5931 556.774 86.1464 557.092 84.3904" stroke="#4C2600" stroke-miterlimit="10" stroke-linecap="round"/>
<path d="M543.416 86.2886C544.505 89.0063 548.058 90.3024 550.79 90.202C552.491 90.1351 554.167 89.5665 555.559 88.5882C556.983 87.5931 557.654 86.1464 557.335 84.3904" stroke="#4C2600" stroke-miterlimit="10" stroke-linecap="round"/>
<path d="M557.193 92.7775V86.9408" stroke="#4C2600" stroke-miterlimit="10" stroke-linecap="round"/>
<path d="M559.891 78.8964C561.207 79.097 562.498 80.1089 562.54 81.4384C562.565 82.2579 562.129 83.0105 561.66 83.6878C560.981 84.6662 560.151 85.6195 559.037 86.0376C557.914 86.4557 556.64 86.2717 555.542 85.7867C554.444 85.3101 553.489 84.5575 552.55 83.8133C551.838 83.253 551.075 82.6008 550.958 81.706C550.816 80.619 551.729 79.6239 552.777 79.2894C554.025 78.888 555.039 79.4315 556.229 79.3814C557.495 79.3312 558.567 78.6957 559.891 78.8964Z" fill="#4C2600"/>
<path d="M591.878 143.778L584.269 197.722" stroke="#4C2600" stroke-miterlimit="10" stroke-linecap="round"/>
<path d="M613.709 135.5C613.466 135.658 613.231 135.817 612.997 135.985C596.764 147.207 593.781 169.993 606.2 185.321L606.502 185.697L599.79 189.142C596.923 190.614 595.13 193.558 595.13 196.769V197.421" stroke="#4C2600" stroke-miterlimit="10" stroke-linecap="round"/>
<path d="M557.05 137.849C555.977 140.425 556.74 143.636 558.852 145.459C557.402 148.135 558.047 151.847 560.117 154.08C558.969 156.346 559.581 159.516 561.399 161.288C561.424 164.708 561.148 168.271 561.173 171.691" stroke="#4C2600" stroke-miterlimit="10" stroke-linecap="round"/>
<path d="M643.635 187.846C646.031 183.264 647.489 178.196 647.892 173.045" stroke="#4C2600" stroke-miterlimit="10" stroke-linecap="round"/>
<path d="M525.608 70.6932C524.376 74.2387 523.756 78.1188 521.359 81.0622C519.583 83.2447 516.867 84.867 516.055 87.5178C515.216 90.2438 516.691 93.0869 516.918 95.9217C517.152 98.7899 516.122 101.8 517.211 104.476C518.594 107.871 523.245 109.334 526.798 108.038C530.351 106.742 532.706 103.305 533.427 99.7264C534.256 95.5872 533.2 91.3058 533.519 87.0997C533.846 82.743 535.631 78.6121 536.377 74.2973C536.838 71.6298 537.198 64.0788 533.619 62.8412C529.907 61.5618 526.454 68.2766 525.608 70.6932Z" fill="#C1660C"/>
<path d="M587.999 70.6932C589.231 74.2387 589.851 78.1188 592.248 81.0622C594.024 83.2447 596.739 84.867 597.552 87.5178C598.39 90.2438 596.915 93.0869 596.689 95.9217C596.454 98.7899 597.485 101.8 596.396 104.476C595.013 107.871 590.362 109.334 586.809 108.038C583.256 106.742 580.901 103.305 580.18 99.7264C579.35 95.5872 580.406 91.3058 580.088 87.0997C579.761 82.743 577.976 78.6121 577.23 74.2973C576.769 71.6298 576.409 64.0788 579.987 62.8412C583.7 61.5618 587.152 68.2766 587.999 70.6932Z" fill="#C1660C"/>
<path d="M535.547 70.7684C537.768 73.6784 541.547 74.6819 544.656 73.3941C545.578 73.0095 546.634 73.0262 547.522 73.4778C550.229 74.8324 553.447 74.7404 556.095 73.2353C557.134 72.6499 558.4 72.675 559.456 73.2353C561.559 74.3391 564.107 74.2638 566.168 73.0597C567.241 72.4325 568.573 72.4743 569.654 73.0764C572.671 74.7404 576.577 74.1885 579.024 71.4708" stroke="#4C2600" stroke-miterlimit="10" stroke-linecap="round"/>
<path d="M546.676 78.4282C547.384 78.4282 547.958 77.8554 547.958 77.1488C547.958 76.4422 547.384 75.8694 546.676 75.8694C545.968 75.8694 545.394 76.4422 545.394 77.1488C545.394 77.8554 545.968 78.4282 546.676 78.4282Z" fill="#4C2600"/>
<path d="M567.568 76.6972C567.568 77.3997 566.998 77.9767 566.285 77.9767C565.573 77.9767 565.003 77.408 565.003 76.6972C565.003 75.9865 565.573 75.4178 566.285 75.4178C566.998 75.4178 567.568 75.9865 567.568 76.6972Z" fill="#4C2600"/>
<path d="M573.752 121.66C574.909 123.675 577.423 124.813 579.702 124.353C580.306 124.227 580.926 123.985 581.303 123.5C581.68 123.015 581.739 122.237 581.303 121.811C580.842 121.359 580.012 121.468 579.551 121.919C579.09 122.371 578.931 123.057 578.931 123.701C578.94 125.156 579.711 126.585 580.926 127.388C582.141 128.191 583.758 128.358 585.107 127.806C585.661 127.581 586.197 127.213 586.457 126.669C586.716 126.126 586.616 125.39 586.121 125.047C585.669 124.737 585.015 124.846 584.588 125.189C584.16 125.54 583.934 126.075 583.825 126.611C583.54 127.99 583.968 129.495 584.94 130.524C585.912 131.553 587.395 132.063 588.786 131.862" stroke="#4C2600" stroke-miterlimit="10" stroke-linecap="round"/>
<path d="M525.248 134.287C527.393 135.182 530.083 134.555 531.608 132.799C532.011 132.33 532.354 131.762 532.354 131.143C532.354 130.524 531.935 129.88 531.315 129.805C530.67 129.73 530.083 130.315 529.991 130.959C529.899 131.603 530.192 132.238 530.594 132.748C531.491 133.894 532.974 134.555 534.433 134.454C535.891 134.354 537.265 133.501 538.003 132.238C538.304 131.72 538.505 131.101 538.38 130.516C538.254 129.93 537.726 129.404 537.123 129.437C536.57 129.462 536.117 129.947 536 130.482C535.874 131.017 536.025 131.586 536.268 132.079C536.888 133.342 538.145 134.279 539.544 134.504C540.936 134.73 542.427 134.229 543.408 133.217" stroke="#4C2600" stroke-miterlimit="10" stroke-linecap="round"/>
<path d="M623.506 173.915C625.651 174.81 628.341 174.183 629.866 172.427C630.268 171.958 630.612 171.39 630.612 170.771C630.612 170.152 630.193 169.508 629.573 169.433C628.928 169.358 628.341 169.943 628.249 170.587C628.157 171.231 628.45 171.866 628.852 172.376C629.749 173.522 631.232 174.183 632.69 174.082C634.148 173.982 635.523 173.129 636.26 171.866C636.562 171.348 636.763 170.729 636.637 170.144C636.512 169.558 635.984 169.032 635.38 169.065C634.827 169.09 634.375 169.575 634.257 170.11C634.132 170.645 634.283 171.214 634.526 171.707C635.146 172.97 636.403 173.907 637.802 174.132C639.193 174.358 640.685 173.857 641.666 172.845" stroke="#4C2600" stroke-miterlimit="10" stroke-linecap="round"/>
<path d="M526.756 189.36C526.446 192.094 525.809 194.795 524.854 197.379H523.153L501.222 197.354L474.229 197.32H473.173L461.575 197.304C461.659 193.984 461.734 190.606 461.801 187.202C461.952 179.735 462.078 172.159 462.245 164.784H462.22V134.647C462.22 134.053 462.254 133.467 462.296 132.882L464.34 102.645L477.606 114.494C479.375 114.009 481.243 113.741 483.171 113.741C485.098 113.741 486.95 114.009 488.719 114.486L501.976 102.645C502.169 105.546 502.37 108.448 502.563 111.35C502.898 116.325 503.275 125.741 503.979 134.312C504.155 136.436 504.348 138.51 504.566 140.441C504.683 141.503 504.817 142.532 504.951 143.51C505.253 145.71 505.605 147.625 506.007 149.121C506.317 150.284 506.661 151.195 507.038 151.764C507.163 151.956 507.298 152.14 507.432 152.324C508.747 154.114 510.49 155.51 512.259 156.881C513.532 157.868 514.831 158.846 515.996 159.934C520.957 164.583 524.502 170.712 526.069 177.327C526.999 181.257 527.226 185.346 526.756 189.36Z" fill="white"/>
<path d="M491.048 141.052C490.219 140.985 489.155 140.684 489.104 139.848C489.054 139.062 489.976 138.602 490.73 138.376C495.146 137.021 499.563 135.667 503.979 134.304C504.155 136.428 504.348 138.501 504.566 140.433C500.108 141.202 495.549 141.412 491.04 141.052H491.048Z" fill="#F48C12"/>
<path d="M493.964 149.172C493.269 149.055 492.431 148.779 492.313 148.085C492.171 147.24 493.193 146.73 494.023 146.504C497.668 145.501 501.314 144.497 504.959 143.502C505.261 145.701 505.613 147.616 506.015 149.113C502.043 149.799 497.953 149.832 493.973 149.172H493.964Z" fill="#F48C12"/>
<path d="M512.251 156.873C508.019 158.42 503.41 158.955 498.934 158.345C498.348 158.27 497.652 158.069 497.51 157.5C497.334 156.815 498.105 156.288 498.759 156.003C501.625 154.741 504.516 153.512 507.424 152.316C508.739 154.105 510.482 155.502 512.251 156.873Z" fill="#F48C12"/>
<path d="M474.623 139.572C474.673 140.408 473.667 140.843 472.846 141.01C469.352 141.738 465.79 142.122 462.22 142.156V136.478C465.756 137.088 469.285 137.707 472.821 138.318C473.609 138.451 474.572 138.786 474.623 139.572Z" fill="#F48C12"/>
<path d="M472.486 148.151C472.461 148.854 471.664 149.23 470.986 149.431C468.136 150.275 465.187 150.769 462.22 150.894V145.601C465.011 146.002 467.801 146.395 470.592 146.797C471.438 146.914 472.519 147.299 472.486 148.151Z" fill="#F48C12"/>
<path d="M468.514 158.144C468.446 158.73 467.776 159.014 467.206 159.164C465.572 159.599 463.904 159.884 462.22 160.009V155.418C463.846 155.878 465.463 156.346 467.08 156.823C467.759 157.024 468.597 157.442 468.514 158.144Z" fill="#F48C12"/>
<path d="M473.994 124.194C473.994 124.88 473.433 125.44 472.746 125.44C472.059 125.44 471.497 124.88 471.497 124.194C471.497 123.508 472.059 122.948 472.746 122.948C473.433 122.948 473.994 123.508 473.994 124.194Z" fill="#4C2600"/>
<path d="M489.322 124.194C489.322 124.88 488.76 125.44 488.073 125.44C487.386 125.44 486.824 124.88 486.824 124.194C486.824 123.508 487.386 122.948 488.073 122.948C488.76 122.948 489.322 123.508 489.322 124.194Z" fill="#4C2600"/>
<path d="M482.165 124.436H478.486C478.025 124.436 477.815 125.005 478.159 125.306L480.003 126.895C480.187 127.054 480.464 127.054 480.648 126.895L482.492 125.306C482.835 125.005 482.626 124.436 482.165 124.436Z" fill="#4C2600"/>
<path d="M474.472 127.664C475.327 128.659 476.743 129.119 478.025 128.868C479.182 128.643 480.464 127.857 480.221 126.502" stroke="#4C2600" stroke-miterlimit="10" stroke-linecap="round"/>
<path d="M486.062 127.664C485.207 128.659 483.791 129.119 482.509 128.868C481.352 128.643 480.079 127.857 480.313 126.502" stroke="#4C2600" stroke-miterlimit="10" stroke-linecap="round"/>
<path d="M526.17 197.546C523.631 197.546 521.225 197.137 519.298 196.802C517.069 196.417 515.569 194.302 515.954 192.077C516.34 189.853 518.452 188.365 520.689 188.741C524.401 189.376 527.93 189.836 530.259 188.473C531.751 187.595 532.991 185.756 533.754 183.297C535.296 178.339 534.466 172.56 531.6 168.22C530.318 166.272 528.6 164.508 526.79 162.643C526.01 161.84 525.206 161.004 524.418 160.143C522.013 157.509 518.72 153.394 517.89 148.193C516.943 142.239 519.843 136.344 524.795 134.178C526.865 133.275 529.287 134.212 530.192 136.277C531.097 138.343 530.159 140.759 528.089 141.662C526.572 142.323 525.625 144.681 525.985 146.905C526.354 149.222 527.787 151.68 530.486 154.64C531.189 155.41 531.919 156.162 532.681 156.957C534.676 159.014 536.729 161.138 538.438 163.713C542.687 170.135 543.86 178.355 541.581 185.706C540.19 190.179 537.718 193.574 534.416 195.506C531.776 197.061 528.893 197.53 526.17 197.53V197.546Z" fill="white"/>
<path d="M473.181 197.379H458.902C456.63 197.379 455.164 194.996 456.186 192.972C456.698 191.969 457.318 191.024 457.996 190.221C459.622 188.289 461.86 186.876 464.315 186.257C469.293 184.986 472.57 192.295 473.181 197.387V197.379Z" fill="white"/>
<path d="M477.212 170.528V187.261C477.212 187.261 470.893 190.965 471.48 195.038C471.48 195.038 471.69 197.028 474.246 197.312L484.126 197.371" stroke="#4C2600" stroke-miterlimit="10" stroke-linecap="round"/>
<path d="M496.277 165.695C489.816 176.817 499.278 187.269 499.278 187.269C499.278 187.269 492.959 190.974 493.546 195.046C493.546 195.046 493.755 197.036 496.311 197.321L506.191 197.379" stroke="#4C2600" stroke-miterlimit="10" stroke-linecap="round"/>
<path d="M467.014 109.594C468.354 111.291 469.997 112.93 471.43 114.611C471.765 115.004 471.606 115.606 471.12 115.782C469.486 116.367 467.734 117.521 466.435 118.441L467.014 109.594Z" fill="#F48C12"/>
<path d="M468.229 110.94C469.201 112.178 470.391 113.373 471.447 114.594C471.773 114.971 471.623 115.556 471.153 115.74C469.963 116.208 468.715 117.028 467.776 117.688" stroke="#4C2600" stroke-miterlimit="10" stroke-linecap="round"/>
<path d="M498.071 109.594C496.73 111.291 495.088 112.93 493.655 114.611C493.32 115.004 493.479 115.606 493.965 115.782C495.599 116.367 497.351 117.521 498.65 118.441L498.071 109.594Z" fill="#F48C12"/>
<path d="M496.856 110.94C495.884 112.178 494.694 113.373 493.638 114.594C493.311 114.971 493.462 115.556 493.931 115.74C495.121 116.208 496.37 117.028 497.308 117.688" stroke="#4C2600" stroke-miterlimit="10" stroke-linecap="round"/>
<path d="M301.126 189.544C301.445 192.286 302.082 194.996 303.037 197.588H304.747L326.745 197.563L353.813 197.529H354.869L366.501 197.513C366.417 194.185 366.341 190.798 366.274 187.386C366.123 179.902 365.998 172.301 365.83 164.901H365.855V134.672C365.855 134.069 365.822 133.484 365.78 132.899L363.735 102.569L350.427 114.452C348.651 113.967 346.782 113.699 344.846 113.699C342.91 113.699 341.058 113.967 339.282 114.452L325.982 102.578C325.781 105.488 325.588 108.398 325.387 111.308C325.052 116.3 324.675 125.741 323.971 134.337C323.795 136.469 323.602 138.543 323.384 140.483C323.267 141.554 323.133 142.582 322.999 143.56C322.689 145.76 322.345 147.691 321.943 149.188C321.633 150.359 321.289 151.262 320.912 151.839C320.786 152.031 320.652 152.215 320.518 152.399C319.194 154.189 317.451 155.594 315.674 156.973C314.392 157.96 313.093 158.938 311.928 160.034C306.951 164.7 303.397 170.846 301.822 177.477C300.892 181.416 300.657 185.522 301.126 189.544Z" fill="white"/>
<path d="M336.944 141.094C337.782 141.027 338.838 140.726 338.897 139.89C338.947 139.095 338.025 138.644 337.262 138.409C332.829 137.046 328.405 135.692 323.971 134.329C323.795 136.461 323.603 138.535 323.385 140.475C327.86 141.244 332.427 141.453 336.944 141.094Z" fill="#F48C12"/>
<path d="M334.019 149.238C334.715 149.121 335.553 148.845 335.67 148.151C335.812 147.307 334.79 146.788 333.96 146.563C330.307 145.559 326.653 144.556 322.991 143.552C322.681 145.751 322.337 147.683 321.935 149.18C325.924 149.874 330.022 149.899 334.019 149.238Z" fill="#F48C12"/>
<path d="M315.666 156.965C319.915 158.52 324.541 159.047 329.024 158.445C329.611 158.37 330.306 158.169 330.449 157.592C330.625 156.898 329.845 156.38 329.192 156.095C326.309 154.824 323.418 153.595 320.502 152.391C319.177 154.18 317.434 155.585 315.658 156.965H315.666Z" fill="#F48C12"/>
<path d="M353.402 139.605C353.352 140.441 354.366 140.876 355.187 141.052C358.69 141.788 362.269 142.172 365.847 142.206V136.511C362.302 137.13 358.757 137.74 355.213 138.351C354.425 138.485 353.453 138.819 353.402 139.614V139.605Z" fill="#F48C12"/>
<path d="M355.556 148.218C355.581 148.921 356.386 149.305 357.056 149.506C359.914 150.359 362.872 150.844 365.847 150.978V145.668C363.048 146.069 360.249 146.462 357.45 146.863C356.604 146.981 355.514 147.365 355.556 148.227V148.218Z" fill="#F48C12"/>
<path d="M359.537 158.236C359.604 158.821 360.274 159.105 360.844 159.264C362.478 159.699 364.154 159.983 365.847 160.109V155.501C364.221 155.961 362.587 156.43 360.97 156.915C360.283 157.115 359.453 157.542 359.537 158.244V158.236Z" fill="#F48C12"/>
<path d="M354.04 124.185C354.04 124.88 354.601 125.44 355.297 125.44C355.992 125.44 356.554 124.88 356.554 124.185C356.554 123.491 355.992 122.931 355.297 122.931C354.601 122.931 354.04 123.491 354.04 124.185Z" fill="#4C2600"/>
<path d="M338.67 124.185C338.67 124.88 339.231 125.44 339.927 125.44C340.622 125.44 341.184 124.88 341.184 124.185C341.184 123.491 340.622 122.931 339.927 122.931C339.231 122.931 338.67 123.491 338.67 124.185Z" fill="#4C2600"/>
<path d="M345.843 124.436H349.531C349.992 124.436 350.201 125.005 349.857 125.306L348.014 126.903C347.829 127.062 347.553 127.062 347.36 126.903L345.517 125.306C345.165 125.005 345.382 124.436 345.843 124.436Z" fill="#4C2600"/>
<path d="M353.562 127.673C352.707 128.668 351.283 129.128 350.001 128.877C348.836 128.651 347.562 127.856 347.796 126.502" stroke="#4C2600" stroke-miterlimit="10" stroke-linecap="round"/>
<path d="M341.938 127.673C342.793 128.668 344.218 129.128 345.5 128.877C346.665 128.651 347.938 127.856 347.704 126.502" stroke="#4C2600" stroke-miterlimit="10" stroke-linecap="round"/>
<path d="M301.713 197.755C304.26 197.755 306.674 197.346 308.601 197.011C310.839 196.626 312.339 194.511 311.953 192.278C311.568 190.045 309.448 188.549 307.21 188.933C303.481 189.577 299.945 190.037 297.615 188.666C296.123 187.788 294.875 185.94 294.112 183.473C292.57 178.497 293.4 172.702 296.274 168.354C297.565 166.406 299.283 164.633 301.093 162.76C301.872 161.957 302.685 161.121 303.473 160.251C305.886 157.609 309.188 153.486 310.018 148.268C310.973 142.298 308.057 136.386 303.096 134.212C301.017 133.3 298.595 134.245 297.682 136.319C296.769 138.393 297.715 140.809 299.794 141.721C301.319 142.39 302.266 144.748 301.906 146.981C301.537 149.305 300.104 151.772 297.397 154.741C296.693 155.51 295.964 156.263 295.193 157.065C293.199 159.122 291.129 161.255 289.419 163.847C285.162 170.286 283.98 178.531 286.268 185.906C287.659 190.397 290.148 193.792 293.45 195.74C296.098 197.295 298.989 197.772 301.721 197.772L301.713 197.755Z" fill="white"/>
<path d="M354.86 197.588H369.182C371.453 197.588 372.928 195.197 371.906 193.173C371.394 192.161 370.766 191.216 370.087 190.413C368.461 188.473 366.207 187.06 363.752 186.433C358.757 185.154 355.472 192.487 354.852 197.596L354.86 197.588Z" fill="white"/>
<path d="M350.813 170.662V187.445C350.813 187.445 357.156 191.158 356.561 195.247C356.561 195.247 356.352 197.245 353.788 197.53L343.882 197.588" stroke="#4C2600" stroke-miterlimit="10" stroke-linecap="round"/>
<path d="M331.689 165.812C338.167 176.967 328.68 187.453 328.68 187.453C328.68 187.453 335.024 191.166 334.429 195.255C334.429 195.255 334.22 197.254 331.655 197.538L321.75 197.596" stroke="#4C2600" stroke-miterlimit="10" stroke-linecap="round"/>
<path d="M356.612 114.577C357.769 113.223 359.059 111.893 360.224 110.539C360.526 110.187 361.096 110.371 361.129 110.831L361.557 117.354C361.582 117.78 361.113 118.048 360.761 117.814C359.604 117.036 358.23 116.216 356.939 115.748C356.453 115.573 356.285 114.97 356.621 114.569L356.612 114.577Z" fill="#F48C12"/>
<path d="M359.822 110.898C358.842 112.136 357.652 113.34 356.596 114.561C356.269 114.937 356.42 115.522 356.889 115.706C358.079 116.174 359.328 116.994 360.275 117.663" stroke="#4C2600" stroke-miterlimit="10" stroke-linecap="round"/>
<path d="M331.002 110.873C332.083 112.11 333.265 113.331 334.321 114.569C334.656 114.962 334.489 115.572 334.003 115.748C332.821 116.174 331.581 116.894 330.491 117.604C330.005 117.922 329.368 117.554 329.41 116.977L329.779 111.291C329.821 110.664 330.592 110.405 331.011 110.881L331.002 110.873Z" fill="#F48C12"/>
<path d="M331.112 110.898C332.092 112.136 333.282 113.34 334.338 114.561C334.665 114.937 334.514 115.522 334.045 115.706C332.855 116.174 331.606 116.994 330.659 117.663" stroke="#4C2600" stroke-miterlimit="10" stroke-linecap="round"/>
<path d="M297.146 186.492L296.928 169.968C296.928 169.968 296.894 169.952 296.861 169.935C294.699 171.306 291.9 171.741 289.444 172.084C285.958 172.569 282.472 172.903 279.003 173.489C278.064 173.648 277.117 173.806 276.178 173.974L279.832 197.538H302.233V196.401C302.233 194.427 301.286 192.571 299.693 191.409C298.118 190.263 297.179 188.44 297.154 186.5L297.146 186.492Z" fill="#C1660C"/>
<path d="M248.389 191.384C246.806 190.238 245.859 188.398 245.859 186.442L245.833 175.169C239.045 177.335 231.57 176.348 224.464 177.31L228.528 197.555L250.929 197.496V196.334C250.92 194.377 249.982 192.538 248.389 191.392V191.384Z" fill="#C1660C"/>
<path d="M229.358 176.532C228.579 176.457 227.816 176.382 227.096 176.323C221.447 175.855 214.852 175.897 209.522 173.464L210.846 197.53H233.247V196.2C233.247 194.344 232.358 192.604 230.858 191.509C229.207 190.313 228.311 188.34 228.495 186.308L229.358 176.532Z" fill="white"/>
<path d="M201.888 152.625C202.047 152.408 202.214 152.199 202.39 151.998C205.147 148.82 210.016 148.519 213.687 150.576C216 151.873 219.134 153.311 219.134 153.311L261.119 144.932L296.115 151.94C297.858 160.619 301.076 168.973 295.838 177.235C289.344 187.487 277.184 187.152 266.407 187.119C259.25 187.102 252.094 187.077 244.937 187.06C239.448 187.044 233.959 187.027 228.47 187.019L211.592 190.723L207.569 165.929C206.011 165.344 204.552 164.633 203.186 163.822C199.658 161.723 199.432 155.995 201.846 152.684C201.862 152.667 201.871 152.65 201.888 152.625Z" fill="white"/>
<path d="M272.19 171.013C265.234 171.766 258.236 172.167 251.247 171.916L255.22 197.538H277.62V196.794C277.62 194.569 276.556 192.479 274.754 191.174C272.919 189.836 271.846 187.687 271.896 185.413L272.181 171.022L272.19 171.013Z" fill="white"/>
<path d="M272.215 177.561L271.88 187.604" stroke="#4C2600" stroke-miterlimit="10" stroke-linecap="round"/>
<path d="M251.96 178.163L253.678 189.084" stroke="#4C2600" stroke-miterlimit="10" stroke-linecap="round"/>
<path d="M229.358 176.917L228.327 187.345" stroke="#4C2600" stroke-miterlimit="10" stroke-linecap="round"/>
<path d="M209.463 159.95C209.463 159.95 206.891 163.053 207.611 167.56" stroke="#4C2600" stroke-miterlimit="10" stroke-linecap="round"/>
<path d="M302.509 120.373C305.828 126.736 309.146 133.1 312.457 139.463C313.37 141.211 314.3 143.025 314.351 144.999C314.434 148.227 312.121 151.061 309.465 152.893C306.322 155.067 302.459 156.288 298.654 155.953C294.85 155.619 291.137 153.637 289.034 150.451C285.967 145.81 286.687 139.731 287.517 134.229C288.078 130.532 288.64 126.845 289.193 123.149C289.629 120.289 289.403 115.28 291.137 112.88C295.026 107.487 301.051 117.58 302.501 120.373H302.509Z" fill="#C1660C"/>
<path d="M245.523 150.326L250.711 128.651C253.778 115.857 265.343 106.901 278.533 107.135C291.078 107.353 301.126 117.563 301.126 130.081L303.071 138.962C304.545 145.693 301.587 152.625 295.704 156.238L280.544 165.536C278.391 166.816 275.726 166.866 273.53 165.662L245.532 150.326H245.523Z" fill="white"/>
<path d="M283.636 99.4339C284.684 98.974 285.765 98.5057 286.905 98.4388C288.044 98.3719 289.293 98.7816 289.913 99.7349C290.533 100.697 290.24 102.218 289.176 102.645C291.263 103.021 293.115 104.518 293.919 106.483C294.724 108.448 294.439 110.806 293.207 112.537C290.994 115.631 286.603 116.108 282.807 115.799C279.413 115.523 276.052 114.854 272.809 113.8C270.287 112.98 265.435 112.144 268.1 109.042C272.08 104.401 278.164 101.834 283.636 99.4339Z" fill="white"/>
<path d="M251.448 116.76C246.604 122.062 241.761 127.355 236.908 132.657C235.576 134.112 234.21 135.633 233.657 137.515C232.743 140.609 234.244 143.945 236.339 146.404C238.819 149.305 242.23 151.48 246.001 152.14C249.764 152.792 253.862 151.831 256.711 149.297C260.868 145.593 261.739 139.539 262.351 134.011C262.762 130.298 263.172 126.586 263.583 122.873C263.901 120.005 265.41 115.213 264.354 112.454C261.982 106.249 253.56 114.452 251.44 116.777L251.448 116.76Z" fill="#C1660C"/>
<path d="M291.313 133.585C291.313 134.58 292.126 135.391 293.123 135.391C294.121 135.391 294.933 134.58 294.933 133.585C294.933 132.589 294.121 131.778 293.123 131.778C292.126 131.778 291.313 132.589 291.313 133.585Z" fill="#4C2600"/>
<path d="M270.329 133.585C270.329 134.58 271.142 135.391 272.139 135.391C273.136 135.391 273.949 134.58 273.949 133.585C273.949 132.589 273.136 131.778 272.139 131.778C271.142 131.778 270.329 132.589 270.329 133.585Z" fill="#4C2600"/>
<path d="M280.234 134.839H286.436C287.207 134.839 287.567 135.801 286.98 136.302L283.88 138.987C283.57 139.254 283.1 139.254 282.782 138.987L279.681 136.302C279.095 135.801 279.455 134.839 280.226 134.839H280.234Z" fill="#4C2600"/>
<path d="M293.199 140.283C291.758 141.955 289.369 142.733 287.207 142.306C285.254 141.922 283.101 140.6 283.503 138.317" stroke="#4C2600" stroke-miterlimit="10" stroke-linecap="round"/>
<path d="M273.664 140.283C275.106 141.955 277.494 142.733 279.656 142.306C281.609 141.922 283.762 140.6 283.36 138.317" stroke="#4C2600" stroke-miterlimit="10" stroke-linecap="round"/>
<path d="M523.242 134.966C524.119 134.308 526.4 133.255 528.505 134.308C530.61 135.36 530.698 137.816 530.478 138.913C530.259 139.79 529.294 141.676 527.189 142.202C525.435 143.079 523.242 146.412 528.505 152.727C535.083 160.621 539.688 162.594 540.346 167.199" stroke="#4C2600" stroke-linecap="round"/>
</svg>
