<svg width="408" height="349" viewBox="0 0 408 349" fill="none" xmlns="http://www.w3.org/2000/svg">
<g clip-path="url(#clip0_31_2863)">
<path d="M41.5796 256.865C27.4708 250.879 10.8993 258.11 4.58511 273.004C-1.7291 287.899 4.58511 304.837 18.6938 310.824C32.8025 316.811 56.1075 312.449 62.4348 297.541C68.749 282.646 55.7014 262.852 41.5796 256.865Z" fill="#FFD4B4"/>
<path d="M384.341 117.848C385.14 102.534 372.682 89.4469 356.517 88.6085C340.351 87.7701 326.61 99.4946 325.81 114.809C325.011 130.122 337.09 150.519 353.255 151.358C369.42 152.196 383.542 133.149 384.341 117.848Z" fill="#FFD4B4"/>
<path d="M403.481 292.943C377.241 354.814 241.735 356.504 153.061 318.894C64.3867 281.297 13.7813 200.653 40.0206 138.782C66.26 76.9101 159.414 57.247 248.088 94.8572C336.762 132.467 429.72 231.071 403.481 292.943Z" fill="#FFD4B4"/>
<path d="M246.765 142.764C241.617 137.511 233.18 137.419 227.927 142.567L226.499 143.969L225.098 142.541C219.949 137.288 211.513 137.196 206.26 142.345C201.007 147.493 200.915 155.929 206.063 161.183L207.465 162.61L207.439 162.637L226.093 181.671L246.569 161.602C251.822 156.453 251.913 148.017 246.765 142.764Z" fill="#F48C12"/>
<path d="M83.9973 240.923L81.4297 332.217L71.5916 339.409V347.779H115.333L129.939 244.027C129.939 244.027 104.355 220.002 83.9973 240.936V240.923Z" fill="#C1660C"/>
<path d="M189.715 242.874L190.317 332.23L180.479 339.422V347.792H224.22L238.826 244.04C238.826 244.04 210.085 221.954 189.715 242.887V242.874Z" fill="#C1660C"/>
<path d="M83.9972 240.923H168.086L162.479 163.763C161.222 144.585 145.292 129.664 126.061 129.664C106.844 129.664 90.914 144.572 89.6433 163.763L83.9841 240.923H83.9972Z" fill="#F48C12"/>
<path d="M140.458 167.746C140.458 169.03 141.493 170.065 142.777 170.065C144.061 170.065 145.096 169.03 145.096 167.746C145.096 166.462 144.061 165.427 142.777 165.427C141.493 165.427 140.458 166.462 140.458 167.746Z" fill="#4D2600"/>
<path d="M109.359 170.065C110.64 170.065 111.678 169.027 111.678 167.746C111.678 166.465 110.64 165.427 109.359 165.427C108.078 165.427 107.04 166.465 107.04 167.746C107.04 169.027 108.078 170.065 109.359 170.065Z" fill="#4D2600"/>
<path d="M108.914 185.916C108.914 195.859 116.97 203.915 126.913 203.915C136.856 203.915 144.912 195.859 144.912 185.916C144.912 175.973 136.856 163.777 126.913 163.777C116.97 163.777 108.914 175.973 108.914 185.916Z" fill="#C1660C"/>
<path d="M130.437 174.636C132.297 174.925 134.131 176.366 134.197 178.252C134.236 179.418 133.62 180.492 132.952 181.448C131.983 182.837 130.817 184.199 129.232 184.789C127.633 185.378 125.826 185.116 124.267 184.435C122.708 183.754 121.359 182.693 120.022 181.632C119.014 180.833 117.926 179.903 117.756 178.632C117.546 177.086 118.856 175.671 120.337 175.2C122.118 174.636 123.546 175.396 125.249 175.331C127.044 175.265 128.564 174.348 130.45 174.636H130.437Z" fill="#4D2600"/>
<path d="M131.511 135.9L148.292 110.708C150.873 106.844 156.873 108.337 157.331 112.962L162.493 163.777C162.493 163.777 138.585 164.589 131.524 135.9H131.511Z" fill="#F48C12"/>
<path d="M120.664 135.9L103.883 110.708C101.302 106.844 95.3025 108.337 94.844 112.962L89.6826 163.777C89.6826 163.777 113.59 164.589 120.651 135.9H120.664Z" fill="#F48C12"/>
<path d="M119.603 190.409C119.564 191.666 119.538 192.937 119.76 194.182C119.983 195.426 120.468 196.644 121.319 197.574C122.158 198.478 123.297 199.055 124.489 199.369C126.114 199.788 127.869 199.736 129.428 199.12C130.987 198.505 132.323 197.286 132.991 195.754C133.725 194.09 133.659 192.217 133.581 190.409C132.271 189.976 130.961 189.531 129.756 188.863C128.55 188.182 127.45 187.239 126.821 186.02C126.743 186.033 126.651 186.046 126.572 186.06C124.909 188.3 122.367 189.99 119.603 190.422V190.409Z" fill="#D56153"/>
<path d="M146.222 185.143C144.677 189.007 139.633 190.854 135.755 190.71C133.345 190.619 130.961 189.806 128.996 188.418C126.965 187.003 126.022 184.946 126.468 182.444" stroke="#4D2600" stroke-miterlimit="10" stroke-linecap="round"/>
<path d="M107.04 185.143C108.586 189.007 113.63 190.854 117.507 190.71C119.918 190.619 122.302 189.806 124.267 188.418C126.297 187.003 127.241 184.946 126.795 182.444" stroke="#4D2600" stroke-miterlimit="10" stroke-linecap="round"/>
<path d="M126.612 194.378V186.073" stroke="#4D2600" stroke-miterlimit="10" stroke-linecap="round"/>
<path d="M144.624 132.625C145.345 132.533 146.026 132.35 146.733 132.205C147.598 132.022 148.384 132.284 149.248 132.205C149.772 132.166 149.943 131.537 149.51 131.236C148.777 130.738 147.978 130.345 147.244 129.847C146.825 129.559 146.078 129.022 146.366 128.38C146.511 128.04 147.375 127.686 147.69 127.503C147.821 127.424 147.899 127.319 147.938 127.214C148.03 127.201 148.135 127.188 148.227 127.175C148.882 127.07 148.607 126.075 147.952 126.179C146.589 126.389 145.07 126.52 143.773 125.983C144.559 124.228 145.384 122.485 146.432 120.874C147.388 119.394 149.903 116.001 151.986 117.494C153.362 118.477 153.637 121.11 153.991 122.642C154.475 124.712 154.79 126.821 154.934 128.944C155.078 131.026 155.065 133.109 154.881 135.179C154.75 136.62 154.397 138.847 152.772 139.41C151.711 139.777 150.598 139.135 149.655 138.52C148.476 137.747 147.297 136.974 146.118 136.214C145.03 135.507 143.812 134.891 142.973 133.882C142.567 133.384 142.319 132.847 142.188 132.284C142.843 132.808 143.825 132.729 144.611 132.638L144.624 132.625Z" fill="#C1660C"/>
<path d="M149.419 117.337C148.305 118.726 145.502 123.193 144.1 125.498C143.89 125.839 144.179 126.258 144.572 126.206C145.869 126.009 147.179 125.957 148.489 126.048C148.934 126.088 149.078 126.664 148.711 126.913L146.353 128.459C146.026 128.668 146.091 129.166 146.458 129.297C147.624 129.703 148.711 130.319 149.681 131.092C150.034 131.367 149.851 131.93 149.406 131.93C146.903 131.983 144.414 132.179 141.925 132.494C141.454 132.559 141.362 133.188 141.794 133.384C145.816 135.179 149.432 137.878 152.497 141.048" stroke="#4D2600" stroke-miterlimit="10"/>
<path d="M106.752 132.625C106.031 132.533 105.35 132.35 104.643 132.205C103.778 132.022 102.992 132.284 102.128 132.205C101.604 132.166 101.433 131.537 101.866 131.236C102.599 130.738 103.398 130.345 104.132 129.847C104.551 129.559 105.298 129.022 105.023 128.38C104.879 128.04 104.014 127.686 103.7 127.503C103.569 127.424 103.49 127.319 103.451 127.214C103.359 127.201 103.254 127.188 103.162 127.175C102.507 127.07 102.783 126.075 103.438 126.179C104.8 126.389 106.32 126.52 107.616 125.983C106.83 124.228 106.005 122.485 104.957 120.874C104.001 119.394 101.486 116.001 99.4028 117.494C98.0273 118.477 97.7522 121.11 97.3985 122.642C96.9138 124.712 96.5994 126.821 96.4553 128.944C96.3112 131.026 96.3243 133.109 96.5077 135.179C96.6387 136.62 96.9924 138.847 98.6168 139.41C99.6779 139.777 100.791 139.135 101.735 138.52C102.914 137.747 104.093 136.974 105.272 136.214C106.359 135.507 107.577 134.891 108.416 133.882C108.822 133.384 109.071 132.847 109.202 132.284C108.547 132.808 107.564 132.729 106.778 132.638L106.752 132.625Z" fill="#C1660C"/>
<path d="M101.957 117.337C103.084 118.726 105.874 123.193 107.276 125.498C107.485 125.839 107.197 126.258 106.804 126.206C105.507 126.009 104.197 125.957 102.887 126.048C102.442 126.088 102.298 126.664 102.665 126.913L105.023 128.459C105.35 128.668 105.285 129.166 104.918 129.297C103.752 129.703 102.665 130.319 101.695 131.092C101.341 131.367 101.525 131.93 101.97 131.93C104.472 131.983 106.961 132.179 109.45 132.494C109.922 132.559 110.014 133.188 109.581 133.384C105.56 135.179 101.944 137.878 98.8787 141.048" stroke="#4D2600" stroke-miterlimit="10"/>
<path d="M229.198 249.49L236.259 332.216L226.421 339.408V347.779H270.162L279.685 243.673C279.685 243.673 249.568 228.556 229.198 249.503V249.49Z" fill="#F48C12"/>
<path d="M82.6086 290.768L93.0887 298.157C103.595 305.571 116.407 308.99 129.219 307.785L231.333 296.847L237.346 296.283L254.219 326.806L272.009 327.592L279.057 250.512C317.151 235.355 325.26 184.553 315.972 157.397C313.942 151.476 305.767 151.004 303.056 156.65C284.925 194.562 264.646 218.522 256.053 227.757L165.623 206.889L84.0103 240.923L83.9317 243.962L82.6217 290.755L82.6086 290.768Z" fill="#F48C12"/>
<path d="M82.6086 290.768L94.4511 299.126C104.08 305.912 115.804 309.043 127.542 307.942L233.246 296.781C227.691 286.288 215.482 278.467 203.889 275.86C182.994 271.157 175.291 282.934 154.79 276.751C141.768 272.821 136.279 260.114 127.895 250.748C122.511 244.735 115.201 240.49 107.341 238.669C103.595 237.805 99.1671 237.163 95.3288 237.844C91.1236 238.591 87.3508 241.499 83.9448 243.962L82.6348 290.755L82.6086 290.768Z" fill="#C1660C"/>
<path d="M130.214 243.582L131.773 331.142L120.455 339.409V347.779H164.196L178.802 244.027C178.802 244.027 150.572 222.648 130.201 243.582H130.214Z" fill="#F48C12"/>
<path d="M130.214 275.939L131.341 309.357" stroke="#4D2600" stroke-miterlimit="10" stroke-linecap="round"/>
<path d="M175.016 271.04C170.274 304.707 171.741 294.331 170.418 303.659" stroke="#4D2600" stroke-miterlimit="10" stroke-linecap="round"/>
<path d="M231.53 279.45L233.233 296.781" stroke="#28185E" stroke-width="2" stroke-miterlimit="10" stroke-linecap="round"/>
<path d="M276.043 240.15C276.043 240.15 280.314 245.311 279.122 252.804" stroke="#28185E" stroke-width="2" stroke-miterlimit="10" stroke-linecap="round"/>
<path d="M122.275 307.995C122.275 307.995 107.237 308.165 96.1934 300.357L82.6086 290.781" stroke="#4D2600" stroke-miterlimit="10" stroke-linecap="round"/>
<path d="M328.784 335.819C328.313 339.906 327.369 343.941 325.942 347.805H323.4L290.689 347.766L250.433 347.714H248.861L231.556 347.688C231.687 342.723 231.792 337.679 231.897 332.596C232.119 321.448 232.303 310.117 232.565 299.086H232.538V254.049C232.538 253.158 232.578 252.28 232.656 251.416L235.709 206.22L255.49 223.932C258.136 223.211 260.913 222.805 263.782 222.805C266.651 222.805 269.415 223.198 272.048 223.919L291.816 206.22C292.104 210.557 292.405 214.893 292.694 219.229C293.191 226.67 293.755 240.739 294.803 253.538C295.065 256.708 295.353 259.8 295.681 262.695C295.864 264.293 296.047 265.826 296.257 267.28C296.715 270.568 297.239 273.437 297.829 275.664C298.287 277.406 298.798 278.755 299.362 279.62C299.545 279.908 299.742 280.183 299.951 280.458C301.916 283.131 304.51 285.227 307.143 287.27C309.043 288.751 310.981 290.205 312.711 291.829C320.112 298.785 325.404 307.942 327.736 317.82C329.125 323.688 329.465 329.806 328.771 335.806L328.784 335.819Z" fill="white"/>
<path d="M275.533 263.625C274.288 263.52 272.716 263.074 272.638 261.83C272.559 260.651 273.935 259.97 275.061 259.629C281.651 257.599 288.24 255.581 294.829 253.551C295.091 256.721 295.379 259.813 295.707 262.708C289.052 263.847 282.266 264.162 275.546 263.625H275.533Z" fill="#F48C12"/>
<path d="M279.882 275.755C278.847 275.585 277.603 275.179 277.419 274.131C277.21 272.873 278.729 272.1 279.961 271.76C285.397 270.266 290.834 268.773 296.27 267.267C296.729 270.555 297.253 273.424 297.842 275.651C291.908 276.686 285.816 276.725 279.882 275.742V275.755Z" fill="#F48C12"/>
<path d="M307.156 287.27C300.842 289.589 293.965 290.375 287.297 289.471C286.419 289.353 285.384 289.052 285.174 288.2C284.912 287.165 286.065 286.392 287.035 285.96C291.318 284.074 295.628 282.227 299.951 280.445C301.916 283.117 304.51 285.213 307.143 287.257L307.156 287.27Z" fill="#F48C12"/>
<path d="M251.049 261.411C251.128 262.655 249.621 263.31 248.403 263.559C243.189 264.647 237.87 265.223 232.552 265.275V256.787C237.818 257.704 243.097 258.621 248.363 259.538C249.529 259.734 250.983 260.232 251.049 261.411Z" fill="#F48C12"/>
<path d="M247.852 274.236C247.813 275.284 246.621 275.847 245.612 276.149C241.368 277.419 236.966 278.153 232.539 278.336V270.424C236.704 271.013 240.857 271.616 245.023 272.205C246.28 272.389 247.892 272.952 247.839 274.236H247.852Z" fill="#F48C12"/>
<path d="M241.931 289.17C241.826 290.048 240.831 290.467 239.979 290.703C237.543 291.358 235.054 291.777 232.539 291.96V285.096C234.962 285.777 237.386 286.484 239.796 287.192C240.818 287.493 242.062 288.122 241.931 289.17Z" fill="#F48C12"/>
<path d="M248.245 240.294C249.273 240.294 250.106 239.461 250.106 238.433C250.106 237.406 249.273 236.573 248.245 236.573C247.218 236.573 246.385 237.406 246.385 238.433C246.385 239.461 247.218 240.294 248.245 240.294Z" fill="#4D2600"/>
<path d="M271.105 240.294C272.132 240.294 272.965 239.461 272.965 238.433C272.965 237.406 272.132 236.573 271.105 236.573C270.078 236.573 269.245 237.406 269.245 238.433C269.245 239.461 270.078 240.294 271.105 240.294Z" fill="#4D2600"/>
<path d="M262.289 238.8H256.8C256.118 238.8 255.804 239.652 256.315 240.097L259.053 242.468C259.328 242.704 259.747 242.704 260.022 242.468L262.76 240.097C263.284 239.652 262.957 238.8 262.275 238.8H262.289Z" fill="#4D2600"/>
<path d="M250.813 243.621C252.084 245.101 254.193 245.796 256.105 245.416C257.835 245.075 259.734 243.896 259.38 241.879" stroke="#4D2600" stroke-miterlimit="10" stroke-linecap="round"/>
<path d="M268.105 243.621C266.834 245.101 264.725 245.796 262.813 245.416C261.083 245.075 259.184 243.896 259.538 241.879" stroke="#4D2600" stroke-miterlimit="10" stroke-linecap="round"/>
<path d="M327.92 348.054C324.134 348.054 320.544 347.439 317.676 346.941C314.348 346.364 312.121 343.207 312.698 339.88C313.274 336.553 316.431 334.326 319.758 334.902C325.3 335.858 330.566 336.539 334.024 334.496C336.251 333.186 338.098 330.435 339.238 326.754C341.531 319.339 340.299 310.706 336.029 304.222C334.116 301.313 331.562 298.68 328.863 295.89C327.697 294.685 326.505 293.44 325.326 292.157C321.737 288.213 316.824 282.07 315.593 274.301C314.178 265.406 318.501 256.59 325.889 253.354C328.981 252.005 332.583 253.407 333.933 256.498C335.282 259.59 333.88 263.192 330.789 264.542C328.522 265.537 327.121 269.048 327.645 272.389C328.195 275.847 330.33 279.528 334.352 283.956C335.4 285.109 336.487 286.222 337.627 287.414C340.601 290.48 343.666 293.663 346.207 297.514C352.535 307.117 354.29 319.405 350.897 330.382C348.827 337.077 345.133 342.133 340.221 345.041C336.291 347.36 331.981 348.067 327.92 348.067V348.054Z" fill="white"/>
<path d="M248.887 347.806H227.6C224.22 347.806 222.019 344.242 223.552 341.216C224.312 339.71 225.242 338.308 226.251 337.103C228.674 334.208 232.015 332.112 235.669 331.169C243.084 329.269 247.983 340.194 248.9 347.792L248.887 347.806Z" fill="white"/>
<path d="M254.913 307.68V332.688C254.913 332.688 245.481 338.216 246.372 344.321C246.372 344.321 246.686 347.295 250.499 347.714L265.223 347.792" stroke="#4D2600" stroke-miterlimit="10" stroke-linecap="round"/>
<path d="M283.34 300.449C273.699 317.06 287.808 332.688 287.808 332.688C287.808 332.688 278.376 338.216 279.266 344.321C279.266 344.321 279.581 347.295 283.393 347.714L298.117 347.792" stroke="#4D2600" stroke-miterlimit="10" stroke-linecap="round"/>
<path d="M239.691 216.609C241.682 219.15 244.145 221.6 246.28 224.102C246.778 224.692 246.542 225.595 245.822 225.844C243.385 226.722 240.778 228.438 238.826 229.814" fill="#F48C12"/>
<path d="M241.512 218.626C242.966 220.473 244.735 222.255 246.32 224.089C246.804 224.652 246.582 225.53 245.887 225.792C244.119 226.486 242.259 227.718 240.857 228.713" stroke="#4D2600" stroke-miterlimit="10" stroke-linecap="round"/>
<path d="M286.013 216.609C284.021 219.15 281.559 221.6 279.423 224.102C278.925 224.692 279.161 225.595 279.882 225.844C282.318 226.722 284.938 228.438 286.877 229.814" fill="#F48C12"/>
<path d="M284.192 218.626C282.738 220.473 280.969 222.255 279.384 224.089C278.899 224.652 279.122 225.53 279.816 225.792C281.585 226.486 283.445 227.718 284.847 228.713" stroke="#4D2600" stroke-miterlimit="10" stroke-linecap="round"/>
<path d="M0.655029 347.779H392.804" stroke="#4D2600" stroke-miterlimit="10" stroke-linecap="round"/>
<path d="M97.2082 162.932C98.0653 157.64 94.47 152.655 89.1779 151.797C83.8858 150.94 78.9008 154.536 78.0437 159.828C77.1865 165.12 80.7818 170.105 86.0739 170.962C91.3661 171.819 96.351 168.224 97.2082 162.932Z" fill="white"/>
<path d="M94.7679 175.719C96.004 170.502 92.777 165.271 87.5604 164.035C82.3437 162.799 77.1128 166.026 75.8767 171.243C74.6407 176.46 77.8676 181.69 83.0843 182.927C88.3009 184.163 93.5319 180.936 94.7679 175.719Z" fill="white"/>
<path d="M87.3237 140.915C88.6397 135.718 85.4935 130.439 80.2964 129.122C75.0994 127.806 69.8195 130.953 68.5035 136.15C67.1875 141.347 70.3337 146.627 75.5307 147.943C80.7278 149.259 86.0077 146.113 87.3237 140.915Z" fill="white"/>
<path d="M186.662 211.893C186.662 217.251 182.313 221.6 176.955 221.6C171.597 221.6 167.248 217.251 167.248 211.893C167.248 206.535 171.597 202.186 176.955 202.186C182.313 202.186 186.662 206.535 186.662 211.893Z" fill="white"/>
<path d="M200.792 211.161C202.02 205.943 198.785 200.717 193.566 199.489C188.348 198.261 183.122 201.496 181.894 206.715C180.666 211.933 183.901 217.159 189.12 218.387C194.338 219.615 199.564 216.38 200.792 211.161Z" fill="white"/>
<path d="M210.492 220.882C211.728 215.665 208.501 210.434 203.285 209.198C198.068 207.962 192.837 211.189 191.601 216.405C190.365 221.622 193.592 226.853 198.809 228.089C204.025 229.325 209.256 226.098 210.492 220.882Z" fill="white"/>
<path d="M160.822 109.799C164.613 106.008 164.613 99.8622 160.822 96.0713C157.031 92.2805 150.885 92.2805 147.094 96.0713C143.303 99.8622 143.303 106.008 147.094 109.799C150.885 113.59 157.031 113.59 160.822 109.799Z" fill="white"/>
<path d="M198.229 183.846C198.229 189.204 193.88 193.553 188.522 193.553C183.164 193.553 178.815 189.204 178.815 183.846C178.815 178.488 183.164 174.139 188.522 174.139C193.88 174.139 198.229 178.488 198.229 183.846Z" fill="white"/>
<path d="M242.69 287.349C243.926 282.132 240.699 276.901 235.482 275.665C230.266 274.429 225.035 277.656 223.799 282.873C222.563 288.089 225.789 293.32 231.006 294.556C236.223 295.792 241.454 292.566 242.69 287.349Z" fill="white"/>
<path d="M268.537 190.357C272.328 186.567 272.328 180.42 268.537 176.629C264.746 172.839 258.6 172.839 254.809 176.629C251.018 180.42 251.018 186.567 254.809 190.357C258.6 194.148 264.746 194.148 268.537 190.357Z" fill="white"/>
<path d="M198.907 331.907C202.698 328.116 202.698 321.97 198.907 318.179C195.116 314.388 188.97 314.388 185.179 318.179C181.388 321.97 181.388 328.116 185.179 331.907C188.97 335.698 195.116 335.698 198.907 331.907Z" fill="white"/>
<path d="M206.429 313.999C207.665 308.783 204.438 303.552 199.222 302.316C194.005 301.08 188.774 304.307 187.538 309.523C186.302 314.74 189.529 319.971 194.745 321.207C199.962 322.443 205.193 319.216 206.429 313.999Z" fill="white"/>
<path d="M381.918 241.931C381.918 247.289 377.569 251.638 372.211 251.638C366.853 251.638 362.504 247.289 362.504 241.931C362.504 236.573 366.853 232.224 372.211 232.224C377.569 232.224 381.918 236.573 381.918 241.931Z" fill="white"/>
<path d="M366.01 244.669C370.967 242.627 373.33 236.953 371.288 231.996C369.245 227.039 363.572 224.676 358.615 226.718C353.658 228.76 351.295 234.434 353.337 239.391C355.379 244.348 361.053 246.711 366.01 244.669Z" fill="white"/>
<path d="M348.539 199.644C348.539 205.002 344.19 209.351 338.832 209.351C333.474 209.351 329.125 205.002 329.125 199.644C329.125 194.286 333.474 189.937 338.832 189.937C344.19 189.937 348.539 194.286 348.539 199.644Z" fill="white"/>
<path d="M271.252 167.963C275.043 164.172 275.043 158.026 271.252 154.235C267.461 150.444 261.315 150.444 257.524 154.235C253.733 158.026 253.733 164.172 257.524 167.963C261.315 171.753 267.461 171.753 271.252 167.963Z" fill="white"/>
<path d="M151.645 114.859C152.873 109.64 149.638 104.414 144.419 103.187C139.2 101.959 133.975 105.194 132.747 110.412C131.519 115.631 134.754 120.857 139.973 122.085C145.191 123.313 150.417 120.078 151.645 114.859Z" fill="white"/>
<path d="M179.863 124.83C179.863 127.516 177.689 129.677 175.016 129.677C172.344 129.677 170.169 127.503 170.169 124.83C170.169 122.158 172.344 119.983 175.016 119.983C177.689 119.983 179.863 122.158 179.863 124.83Z" stroke="white" stroke-width="5" stroke-miterlimit="10"/>
<path d="M219.425 255.215C222.102 255.215 224.272 253.044 224.272 250.368C224.272 247.691 222.102 245.521 219.425 245.521C216.748 245.521 214.578 247.691 214.578 250.368C214.578 253.044 216.748 255.215 219.425 255.215Z" stroke="white" stroke-width="5" stroke-miterlimit="10"/>
<path d="M74.7093 184.213C77.3862 184.213 79.5563 182.042 79.5563 179.366C79.5563 176.689 77.3862 174.519 74.7093 174.519C72.0324 174.519 69.8623 176.689 69.8623 179.366C69.8623 182.042 72.0324 184.213 74.7093 184.213Z" stroke="white" stroke-width="5" stroke-miterlimit="10"/>
<path d="M302.702 179.85C302.702 182.536 300.527 184.697 297.855 184.697C295.183 184.697 293.008 182.523 293.008 179.85C293.008 177.178 295.183 175.003 297.855 175.003C300.527 175.003 302.702 177.178 302.702 179.85Z" stroke="white" stroke-width="5" stroke-miterlimit="10"/>
<path d="M340.221 232.656L336.841 231.412L335.596 228.032C335.269 227.141 334.024 227.141 333.697 228.032L332.452 231.412L329.072 232.656C328.182 232.984 328.182 234.228 329.072 234.556L332.452 235.8L333.697 239.18C334.024 240.071 335.269 240.071 335.596 239.18L336.841 235.8L340.221 234.556C341.111 234.228 341.111 232.984 340.221 232.656Z" fill="white"/>
<path d="M65.4346 195.216L62.0548 193.972L60.8103 190.592C60.4828 189.701 59.2383 189.701 58.9108 190.592L57.6663 193.972L54.2865 195.216C53.3957 195.544 53.3957 196.788 54.2865 197.116L57.6663 198.36L58.9108 201.74C59.2383 202.631 60.4828 202.631 60.8103 201.74L62.0548 198.36L65.4346 197.116C66.3254 196.788 66.3254 195.544 65.4346 195.216Z" fill="white"/>
<path d="M195.57 107.551L192.19 106.307L190.946 102.927C190.618 102.036 189.374 102.036 189.046 102.927L187.802 106.307L184.422 107.551C183.531 107.879 183.531 109.123 184.422 109.451L187.802 110.695L189.046 114.075C189.374 114.966 190.618 114.966 190.946 114.075L192.19 110.695L195.57 109.451C196.461 109.123 196.461 107.879 195.57 107.551Z" fill="white"/>
<path d="M354.408 254.271L351.028 253.027L349.784 249.647C349.456 248.756 348.212 248.756 347.884 249.647L346.64 253.027L343.26 254.271C342.369 254.599 342.369 255.843 343.26 256.171L346.64 257.415L347.884 260.795C348.212 261.686 349.456 261.686 349.784 260.795L351.028 257.415L354.408 256.171C355.299 255.843 355.299 254.599 354.408 254.271Z" fill="white"/>
<path d="M260.913 46.5051C257.874 55.6489 259.996 66.3124 266.284 73.6091C272.585 80.9058 282.83 84.5476 292.314 82.8708C295.327 82.3468 298.366 81.2333 300.436 78.9932C302.506 76.7531 303.331 73.1637 301.733 70.5568C300.03 67.7927 296.074 67.0198 293.1 68.3167C290.126 69.6136 288.122 72.548 287.166 75.6527C284.834 83.1721 288.279 91.8312 294.633 96.4817C300.986 101.132 309.711 101.905 317.165 99.3899C320.597 98.2371 324.265 95.6433 324.042 92.0277C323.767 87.7309 317.505 85.9493 314.086 88.5693C310.667 91.1893 309.986 96.1804 310.929 100.385C312.252 106.281 316.3 111.494 321.671 114.245C327.042 116.996 333.644 117.232 339.199 114.848C340.299 114.376 341.439 113.734 341.95 112.647C342.67 111.114 341.793 109.163 340.339 108.298C338.884 107.433 337.037 107.473 335.413 107.944C329.859 109.542 326.479 116.354 328.562 121.752C330.16 125.891 334.168 128.564 338.203 130.385C342.238 132.205 346.6 133.463 350.177 136.07C356.334 140.537 359.36 148.908 357.46 156.27C355.574 163.632 348.893 169.527 341.347 170.471" stroke="#4D2600" stroke-miterlimit="10" stroke-linecap="round"/>
<path d="M27.1171 294.122C34.034 289.641 37.964 280.956 36.7588 272.808C36.4313 270.594 35.6977 268.328 34.0209 266.834C32.3571 265.341 29.5668 264.948 27.9162 266.454C26.0691 268.131 26.5276 271.393 28.3485 273.122C30.1694 274.838 32.855 275.284 35.344 275.192C44.8808 274.812 53.5137 266.729 54.5224 257.232C54.8106 254.52 54.4831 251.599 52.8325 249.437C51.1819 247.276 47.9331 246.189 45.5882 247.59C43.0206 249.136 42.7062 253.132 44.5795 255.477C46.4659 257.808 49.8719 258.516 52.7801 257.782C55.6883 257.049 58.1511 255.097 60.1816 252.896C65.3561 247.302 68.3429 239.717 68.356 232.093" stroke="#4D2600" stroke-miterlimit="10" stroke-linecap="round"/>
</g>
<g clip-path="url(#clip1_31_2863)">
<path d="M48.1419 43.6809L101.575 33.8166C102.723 33.6059 103.603 34.8076 103.052 35.838C99.7612 41.9932 93.8442 46.3138 86.9847 47.5858L45.786 55.1993L48.1493 43.6828L48.1419 43.6809Z" fill="#F48C12"/>
<path d="M46.0886 41.1435C47.8878 43.5734 47.3755 47.0096 44.9457 48.8088C42.5158 50.6081 39.0797 50.0958 37.2804 47.666C35.4811 45.2361 35.9934 41.7999 38.4233 40.0007C40.8531 38.2014 44.2893 38.7137 46.0886 41.1435ZM51.3004 37.2859C47.3671 31.9753 39.8763 30.8556 34.5729 34.7908C29.2623 38.724 28.1446 46.2076 32.0778 51.5182C36.0111 56.8289 43.4946 57.9466 48.8053 54.0133C54.1159 50.0801 55.2337 42.5965 51.3004 37.2859Z" fill="#F9D7BD"/>
<path d="M61.8722 62.2269L86.8983 13.9957C87.4346 12.9614 86.5364 11.7704 85.401 11.9924C78.5512 13.3456 72.6917 17.7444 69.4777 23.9358L50.1763 61.1192L61.8815 62.2215L61.8722 62.2269Z" fill="#F9D7BD"/>
<path d="M66.7729 46.4582C67.5605 45.8054 67.6703 44.6332 67.0175 43.8456C66.3646 43.0581 65.1924 42.9482 64.4049 43.6011C63.6173 44.254 63.5074 45.4262 64.1603 46.2137C64.8132 47.0013 65.9854 47.1111 66.7729 46.4582Z" stroke="#F48C12" stroke-width="2" stroke-miterlimit="10"/>
<path d="M63.7075 64.9333C65.5067 67.3632 64.9944 70.7993 62.5646 72.5986C60.1347 74.3979 56.6986 73.8856 54.8993 71.4558C53.1 69.0259 53.6123 65.5897 56.0422 63.7905C58.472 61.9912 61.9082 62.5035 63.7075 64.9333ZM68.9193 61.0757C64.986 55.7651 57.4952 54.6454 52.1918 58.5806C46.8812 62.5138 45.7635 69.9974 49.6967 75.308C53.63 80.6187 61.1209 81.7384 66.4242 77.8031C71.7348 73.8699 72.8526 66.3863 68.9193 61.0757Z" fill="#F9D7BD"/>
</g>
<g clip-path="url(#clip2_31_2863)">
<path d="M380.57 41.6216L326.617 17.8735C321.577 15.6584 315.638 17.9765 313.346 23.0635L306.716 37.7902C306.273 38.7754 306.703 39.9216 307.68 40.353C308.657 40.7845 309.81 40.3337 310.252 39.3485L316.882 24.6154L319.591 25.8067L312.961 40.5333C312.519 41.5185 312.948 42.6647 313.925 43.0962C314.902 43.5276 316.055 43.0768 316.497 42.0916L323.127 27.365L325.836 28.5563L319.206 43.2829C318.764 44.2681 319.193 45.4143 320.17 45.8457C321.147 46.2772 322.3 45.8264 322.743 44.8412L329.372 30.1146L332.081 31.3058L325.452 46.0325C325.009 47.0177 325.439 48.1639 326.415 48.5953C327.392 49.0267 328.545 48.576 328.988 47.5908L335.617 32.8641L338.326 34.0554L331.697 48.7821C331.254 49.7673 331.684 50.9135 332.661 51.3449C333.637 51.7763 334.79 51.3256 335.233 50.3404L341.862 35.6137L344.571 36.805L337.942 51.5316C337.499 52.5168 337.929 53.663 338.906 54.0945C339.882 54.5259 341.035 54.0751 341.478 53.0899L348.107 38.3633L350.816 39.5546L344.187 54.2812C343.744 55.2664 344.174 56.4126 345.151 56.844C346.128 57.2755 347.28 56.8247 347.723 55.8395L354.352 41.1129L357.061 42.3041L350.432 57.0308C349.989 58.016 350.419 59.1622 351.396 59.5936C352.373 60.025 353.525 59.5743 353.968 58.5891L360.597 43.8624L363.307 45.0537L356.677 59.7803C356.234 60.7656 356.664 61.9118 357.641 62.3432C358.618 62.7746 359.77 62.3239 360.213 61.3387L366.843 46.612L369.552 47.8033L362.922 62.5299C362.479 63.5151 362.909 64.6613 363.886 65.0928C364.863 65.5242 366.016 65.0734 366.458 64.0882L373.088 49.3616L375.797 50.5529L369.167 65.2795C368.725 66.2647 369.154 67.4109 370.131 67.8423C371.108 68.2738 372.261 67.823 372.703 66.8378L379.333 52.1112L382.042 53.3024L375.413 68.0291C374.97 69.0143 375.399 70.1605 376.376 70.5919C377.353 71.0233 378.506 70.5726 378.949 69.5874L385.578 54.8607C387.87 49.7737 385.637 43.856 380.596 41.6344L380.57 41.6216Z" fill="#F48C12"/>
</g>
<defs>
<clipPath id="clip0_31_2863">
<rect width="408" height="302.61" fill="white" transform="translate(0 45.8501)"/>
</clipPath>
<clipPath id="clip1_31_2863">
<rect width="69.0565" height="73.1454" fill="white" transform="translate(88.9734 88.5261) rotate(-165)"/>
</clipPath>
<clipPath id="clip2_31_2863">
<rect width="79.9101" height="53.7101" fill="white" transform="translate(306.541 17.03)"/>
</clipPath>
</defs>
</svg>
