<svg width="259" height="271" viewBox="0 0 259 271" fill="none" xmlns="http://www.w3.org/2000/svg">
<path fill-rule="evenodd" clip-rule="evenodd" d="M139.714 0.897704C174.652 -1.07625 212.758 2.89844 236.94 28.1399C260.801 53.0464 259.315 90.7107 258.765 125.164C258.227 158.843 255.713 193.448 233.89 219.144C210.379 246.827 176.029 267.214 139.714 265.341C104.597 263.531 79.5885 234.79 54.7916 209.91C30.0959 185.131 0.38836 160.109 0.0041024 125.164C-0.382419 90.0129 26.6103 61.9276 52.9072 38.5376C77.3907 16.7605 106.969 2.74776 139.714 0.897704Z" fill="#FFD4B4"/>
<path d="M134.533 20.7971C135.853 17.7254 139.411 16.3035 142.483 17.6233L216.839 49.5652C219.91 50.885 221.332 54.4437 220.013 57.5153C218.693 60.587 215.134 62.0089 212.062 60.6891L137.707 28.7472C134.635 27.4274 133.213 23.8687 134.533 20.7971ZM207.71 52.2362C207.302 53.1789 207.742 54.2787 208.684 54.6872L212.51 56.3291C213.453 56.7376 214.553 56.2977 214.961 55.355C215.37 54.4123 214.93 53.3125 213.987 52.9039L210.161 51.2621C209.219 50.8536 208.119 51.2935 207.71 52.2362Z" fill="#F48C12"/>
<path d="M139.207 16.2092L173.294 30.8525C176.813 32.3687 178.439 36.4459 176.931 39.9653L170.78 54.2866C169.264 57.806 165.187 59.4322 161.667 57.9238L127.581 43.2805C120.29 40.146 116.92 31.701 120.055 24.4186L120.345 23.7351C123.48 16.4449 131.925 13.0747 139.207 16.2092Z" fill="#F48C12"/>
<path d="M119.74 43.6419L127.368 25.8877C128.696 22.7925 132.294 21.3627 135.389 22.6903L165.249 35.5189C168.344 36.8466 169.774 40.4446 168.447 43.5398L160.85 61.2233C160.402 62.2131 158.902 61.8046 158.933 60.7284L158.784 60.0056C158.807 59.1572 157.841 58.6466 157.158 59.1572L156.372 59.7386C155.744 60.2099 154.84 59.825 154.754 59.0394L154.604 57.7746C154.51 56.9969 153.607 56.6041 152.978 57.0754L151.957 57.8374C151.329 58.3088 150.425 57.9238 150.339 57.1383L150.19 55.8735C150.095 55.0957 149.192 54.7029 148.563 55.1743L147.542 55.9363C146.914 56.4077 146.01 56.0227 145.924 55.2371L145.775 53.9723C145.68 53.1946 144.777 52.8018 144.148 53.2732L143.127 54.0352C142.499 54.5065 141.595 54.1216 141.509 53.336L141.36 52.0712C141.265 51.2856 140.362 50.9007 139.733 51.3721L138.712 52.1341C138.084 52.6054 137.18 52.2205 137.086 51.4349L136.937 50.1701C136.842 49.3924 135.947 48.9996 135.318 49.4709L134.297 50.233C133.669 50.7043 132.765 50.3194 132.671 49.5338L132.522 48.269C132.427 47.4913 131.532 47.0985 130.903 47.5698L129.882 48.3318C129.254 48.8032 128.35 48.4183 128.256 47.6327L128.107 46.3679C128.012 45.5901 127.117 45.1974 126.488 45.6687L125.467 46.4307C124.839 46.9021 123.935 46.5171 123.841 45.7316L123.747 44.9303C123.645 44.0818 122.615 43.7283 122.011 44.3332L121.461 44.6867C120.699 45.4487 119.371 44.6396 119.779 43.634L119.74 43.6419Z" fill="#C1660C" fill-opacity="0.4"/>
<path d="M121.225 40.1853L124.218 33.2093C125.546 30.1141 129.144 28.6843 132.239 30.012L162.099 42.8406C165.194 44.1682 166.624 47.7662 165.296 50.8614L162.327 57.7667C161.879 58.7566 160.371 58.3559 160.41 57.2718L160.261 56.5491C160.284 55.7006 159.318 55.19 158.634 55.7006L157.849 56.282C157.22 56.7533 156.317 56.3684 156.231 55.5828L156.081 54.318C155.987 53.5403 155.084 53.1553 154.455 53.6188L153.434 54.3809C152.805 54.8522 151.902 54.4673 151.816 53.6817L151.666 52.4169C151.572 51.6392 150.669 51.2542 150.04 51.7177L149.019 52.4797C148.39 52.9511 147.487 52.5661 147.401 51.7806L147.251 50.5158C147.157 49.738 146.254 49.3531 145.625 49.8166L144.604 50.5786C143.975 51.05 143.072 50.665 142.986 49.8794L142.836 48.6147C142.742 47.8369 141.839 47.452 141.21 47.9155L140.189 48.6775C139.56 49.1489 138.657 48.7639 138.563 47.9783L138.413 46.7135C138.319 45.9358 137.424 45.5509 136.795 46.0144L135.774 46.7764C135.145 47.2477 134.242 46.8628 134.148 46.0772L133.998 44.8124C133.904 44.0347 133.009 43.6498 132.38 44.1132L131.359 44.8753C130.73 45.3466 129.827 44.9538 129.733 44.1761L129.584 42.9113C129.489 42.1336 128.594 41.7486 127.965 42.2121L126.944 42.9741C126.315 43.4455 125.412 43.0606 125.318 42.275L125.224 41.4737C125.121 40.6252 124.092 40.2717 123.487 40.8766L122.937 41.2223C122.175 41.9922 120.848 41.1752 121.256 40.1696L121.225 40.1853Z" fill="white"/>
<path d="M122.71 36.7288L125.703 29.7528C127.03 26.6576 130.628 25.2278 133.724 26.5554L163.584 39.3841C166.679 40.7117 168.109 44.3097 166.781 47.4049L163.812 54.3102C163.364 55.3 161.855 54.8994 161.895 53.8153L161.745 53.0925C161.769 52.2441 160.803 51.7335 160.119 52.2441L159.334 52.8254C158.705 53.2968 157.802 52.9118 157.715 52.1263L157.566 50.8615C157.472 50.0837 156.568 49.6988 155.94 50.1623L154.919 50.9243C154.29 51.3957 153.387 51.0107 153.3 50.2251L153.151 48.9603C153.057 48.1826 152.153 47.7977 151.525 48.2612L150.504 49.0232C149.875 49.4945 148.972 49.1096 148.885 48.324L148.736 47.0592C148.642 46.2815 147.738 45.8966 147.11 46.3601L146.089 47.1221C145.46 47.5934 144.557 47.2085 144.47 46.4229L144.321 45.1581C144.227 44.3804 143.324 43.9954 142.695 44.4589L141.674 45.221C141.045 45.6923 140.142 45.3074 140.048 44.5218L139.898 43.257C139.804 42.4793 138.909 42.0943 138.28 42.5578L137.259 43.3198C136.63 43.7912 135.727 43.4063 135.633 42.6207L135.483 41.3559C135.389 40.5781 134.494 40.1932 133.865 40.6567L132.844 41.4187C132.215 41.8901 131.312 41.5051 131.218 40.7196L131.068 39.4548C130.974 38.677 130.079 38.2921 129.45 38.7556L128.429 39.5176C127.8 39.989 126.897 39.604 126.803 38.8184L126.708 38.0171C126.606 37.1687 125.577 36.8152 124.972 37.4201L124.422 37.7657C123.66 38.5356 122.333 37.7186 122.741 36.7131L122.71 36.7288Z" fill="#C1660C"/>
<path d="M124.375 32.8637L127.368 25.8877C128.696 22.7925 132.294 21.3627 135.389 22.6903L165.249 35.5189C168.344 36.8466 169.774 40.4446 168.447 43.5398L165.485 50.4451C165.037 51.4349 163.529 51.0343 163.568 49.9502L163.419 49.2274C163.442 48.379 162.476 47.8684 161.793 48.379L161.007 48.9603C160.379 49.4317 159.475 49.0467 159.389 48.2611L159.24 46.9963C159.145 46.2186 158.242 45.8337 157.613 46.2972L156.592 47.0592C155.964 47.5306 155.06 47.1456 154.974 46.36L154.825 45.0952C154.73 44.3175 153.827 43.9326 153.198 44.3961L152.177 45.1581C151.549 45.6294 150.645 45.2445 150.559 44.4589L150.41 43.1941C150.315 42.4164 149.412 42.0314 148.783 42.4949L147.762 43.257C147.134 43.7283 146.23 43.3434 146.144 42.5578L145.995 41.293C145.9 40.5153 144.997 40.1303 144.368 40.5938L143.347 41.3558C142.719 41.8272 141.815 41.4423 141.721 40.6567L141.572 39.3919C141.477 38.6141 140.582 38.2292 139.953 38.6927L138.932 39.4547C138.304 39.9261 137.4 39.5411 137.306 38.7556L137.157 37.4908C137.062 36.713 136.167 36.3281 135.538 36.7916L134.517 37.5536C133.889 38.025 132.985 37.64 132.891 36.8544L132.742 35.5896C132.647 34.8119 131.752 34.427 131.123 34.8905L130.102 35.6525C129.474 36.1238 128.57 35.7389 128.476 34.9533L128.382 34.152C128.28 33.3036 127.25 32.9501 126.646 33.555L126.096 33.9006C125.334 34.6705 124.006 33.8535 124.414 32.8479L124.375 32.8637Z" fill="white"/>
<path d="M170.316 34.2542L136.057 19.5323" stroke="#4C2600" stroke-width="2" stroke-miterlimit="10" stroke-linecap="round"/>
<path d="M172.979 35.3933L173.529 35.629C175.98 36.6817 177.12 39.5255 176.067 41.9844L173.584 47.7663" stroke="#4C2600" stroke-width="2" stroke-miterlimit="10" stroke-linecap="round"/>
<path d="M157.715 76.3222C163.082 76.3222 167.433 71.9715 167.433 66.6045C167.433 61.2376 163.082 56.8868 157.715 56.8868C152.349 56.8868 147.998 61.2376 147.998 66.6045C147.998 71.9715 152.349 76.3222 157.715 76.3222Z" fill="white"/>
<path d="M173.585 70.2262C178.952 70.2262 183.302 65.8754 183.302 60.5085C183.302 55.1415 178.952 50.7908 173.585 50.7908C168.218 50.7908 163.867 55.1415 163.867 60.5085C163.867 65.8754 168.218 70.2262 173.585 70.2262Z" fill="white"/>
<path d="M129.804 98.8921L108.381 69.1027C105.089 64.5306 97.8855 66.6046 97.532 72.2294L93.5098 134.008C93.5098 134.008 122.506 133.945 129.804 98.8921Z" fill="#F48C12"/>
<path d="M140.944 225.874C168.439 224.877 189.312 200.743 186.327 173.389L181.684 130.818C179.319 107.636 159.373 90.2664 136.081 91.1149C112.796 91.9555 94.154 110.723 93.4706 134.008L91.8837 176.767C90.8624 204.279 113.424 226.864 140.936 225.866L140.944 225.874Z" fill="#F48C12"/>
<path d="M104.438 133.45C101.35 139.978 104.131 147.771 110.659 150.867C117.188 153.954 124.981 151.173 128.076 144.645C131.163 138.117 129.663 127.613 123.135 124.518C116.606 121.431 107.525 126.922 104.438 133.45Z" fill="#C1660C"/>
<path d="M154.911 136.608C154.966 138.156 156.27 139.366 157.818 139.311C159.366 139.256 160.575 137.952 160.52 136.404C160.465 134.856 159.161 133.647 157.614 133.702C156.066 133.757 154.856 135.061 154.911 136.608Z" fill="#4C2600"/>
<path d="M114.438 138.069C114.493 139.617 115.797 140.827 117.345 140.772C118.892 140.717 120.102 139.413 120.047 137.865C119.992 136.318 118.688 135.108 117.14 135.163C115.593 135.218 114.383 136.522 114.438 138.069Z" fill="#4C2600"/>
<path d="M143.072 145.391C145.343 145.658 147.629 147.324 147.786 149.602C147.88 151.008 147.181 152.336 146.419 153.53C145.311 155.258 143.952 156.947 142.051 157.74C140.15 158.534 137.943 158.29 136.026 157.528C134.109 156.774 132.42 155.541 130.762 154.315C129.505 153.396 128.154 152.32 127.887 150.78C127.565 148.918 129.089 147.143 130.857 146.507C132.985 145.737 134.761 146.609 136.803 146.452C138.972 146.287 140.778 145.124 143.072 145.391Z" fill="#4C2600"/>
<path d="M142.947 98.4208L162.162 67.1624C165.108 62.3624 172.453 63.9179 173.208 69.4956L181.684 130.826C181.684 130.826 152.759 132.861 142.947 98.4208Z" fill="#F48C12"/>
<path d="M130.653 164.976C130.653 166.508 130.684 168.047 131.006 169.54C131.328 171.033 131.965 172.494 133.041 173.586C134.093 174.646 135.5 175.29 136.961 175.62C138.948 176.06 141.077 175.927 142.931 175.102C144.793 174.277 146.356 172.761 147.111 170.868C147.92 168.825 147.763 166.547 147.582 164.363C145.971 163.892 144.377 163.42 142.884 162.65C141.392 161.881 140.025 160.789 139.2 159.335C139.098 159.359 138.996 159.374 138.901 159.398C136.984 162.195 133.983 164.347 130.653 164.984V164.976Z" fill="#E07160"/>
<path d="M162.657 157.434C160.952 162.179 154.927 164.646 150.221 164.638C147.291 164.638 144.384 163.75 141.926 162.163C139.412 160.537 138.163 158.086 138.603 155.038" stroke="#4C2600" stroke-width="2" stroke-miterlimit="10" stroke-linecap="round"/>
<path d="M115.2 159.147C117.242 163.758 123.433 165.777 128.123 165.431C131.045 165.219 133.881 164.127 136.214 162.36C138.603 160.553 139.671 158.023 139.011 155.014" stroke="#4C2600" stroke-width="2" stroke-miterlimit="10" stroke-linecap="round"/>
<path d="M139.302 169.469L138.94 159.414" stroke="#4C2600" stroke-width="2" stroke-miterlimit="10" stroke-linecap="round"/>
<path d="M158.69 93.8801C159.554 93.7387 160.387 93.4795 161.235 93.2752C162.272 93.0239 163.231 93.291 164.275 93.1653C164.904 93.0867 165.092 92.3247 164.55 91.9869C163.647 91.4134 162.657 90.9735 161.754 90.4078C161.235 90.0858 160.308 89.4573 160.615 88.6638C160.78 88.2396 161.809 87.784 162.186 87.5483C162.351 87.4462 162.437 87.3205 162.469 87.1791C162.586 87.1555 162.704 87.1398 162.822 87.1162C163.616 86.967 163.231 85.7729 162.445 85.9221C160.811 86.2285 158.973 86.4563 157.37 85.8672C158.25 83.7068 159.169 81.5621 160.371 79.5589C161.463 77.7285 164.362 73.5099 166.946 75.2146C168.651 76.338 169.107 79.5275 169.602 81.3579C170.277 83.8482 170.756 86.3935 171.024 88.9545C171.291 91.4684 171.361 93.998 171.236 96.5197C171.149 98.2794 170.811 100.982 168.871 101.736C167.606 102.231 166.224 101.5 165.053 100.801C163.592 99.9213 162.131 99.0414 160.67 98.1616C159.318 97.3446 157.826 96.6532 156.757 95.4749C156.239 94.9014 155.917 94.2494 155.736 93.5738C156.553 94.1787 157.739 94.0451 158.682 93.888L158.69 93.8801Z" fill="#C1660C"/>
<path d="M163.827 75.1439C162.531 76.8722 159.342 82.4027 157.739 85.2701C157.504 85.6943 157.865 86.1893 158.344 86.1028C159.9 85.8043 161.494 85.6786 163.081 85.7493C163.623 85.7729 163.827 86.4721 163.38 86.7863L160.591 88.766C160.206 89.0409 160.308 89.6301 160.756 89.7715C162.186 90.2193 163.529 90.9106 164.731 91.7983C165.163 92.1204 164.967 92.796 164.432 92.8275C161.408 93.0003 158.391 93.3381 155.406 93.8409C154.833 93.9351 154.754 94.7129 155.288 94.9328C160.245 96.9361 164.731 100.039 168.588 103.747" stroke="#4C2600" stroke-width="2" stroke-miterlimit="10" stroke-linecap="round"/>
<path d="M112.82 95.5377C111.948 95.4592 111.099 95.2628 110.243 95.1214C109.19 94.9485 108.248 95.2863 107.203 95.2314C106.574 95.1999 106.331 94.4536 106.841 94.0765C107.706 93.4402 108.656 92.9296 109.52 92.2933C110.015 91.9319 110.887 91.2406 110.526 90.4707C110.329 90.0543 109.269 89.6773 108.884 89.473C108.711 89.3866 108.617 89.2609 108.578 89.1274C108.46 89.1117 108.342 89.1038 108.224 89.0881C107.423 88.9938 107.721 87.7762 108.515 87.8704C110.172 88.059 112.018 88.1454 113.574 87.4541C112.537 85.3644 111.469 83.2905 110.125 81.3736C108.9 79.6296 105.71 75.631 103.259 77.5164C101.641 78.7655 101.413 81.9707 101.052 83.8325C100.557 86.3621 100.266 88.9388 100.18 91.5155C100.093 94.0373 100.203 96.5669 100.51 99.0729C100.722 100.817 101.256 103.488 103.251 104.101C104.547 104.501 105.875 103.676 106.991 102.891C108.381 101.909 109.78 100.919 111.17 99.937C112.458 99.0257 113.896 98.2323 114.878 96.9754C115.357 96.3626 115.632 95.6949 115.758 95.0035C114.988 95.6713 113.794 95.6163 112.843 95.5299L112.82 95.5377Z" fill="#C1660C"/>
<path d="M106.339 77.2179C107.753 78.8519 111.335 84.1311 113.142 86.8727C113.409 87.2734 113.079 87.7997 112.6 87.7447C111.021 87.5562 109.426 87.5484 107.847 87.729C107.313 87.7919 107.156 88.5068 107.619 88.7896L110.55 90.565C110.958 90.8085 110.895 91.4056 110.455 91.5784C109.065 92.1283 107.769 92.9139 106.637 93.888C106.229 94.2415 106.472 94.9014 107.014 94.8936C110.047 94.8464 113.079 94.9721 116.096 95.2549C116.669 95.3099 116.811 96.0798 116.292 96.3312C111.492 98.688 107.242 102.105 103.66 106.088" stroke="#4C2600" stroke-width="2" stroke-miterlimit="10" stroke-linecap="round"/>
<path d="M165.037 183.806C172.704 177.946 183.703 179.415 189.555 187.082C195.416 194.749 193.947 205.748 186.279 211.6C178.62 217.461 167.614 215.992 161.761 208.324C155.901 200.657 157.37 189.659 165.037 183.806ZM160.779 178.236C150.032 186.454 147.974 201.828 156.191 212.582C164.409 223.329 179.783 225.387 190.537 217.17C201.284 208.953 203.342 193.579 195.125 182.824C186.908 172.07 171.534 170.019 160.779 178.236Z" fill="#C1660C"/>
<path opacity="0.39" d="M194.378 207.088C199.552 196.752 195.367 184.18 185.031 179.006C174.695 173.833 162.123 178.018 156.949 188.353C151.776 198.689 155.961 211.262 166.296 216.435C176.632 221.609 189.205 217.424 194.378 207.088Z" fill="white"/>
<path d="M189.909 215.599C188.707 216.557 187.466 217.453 186.224 218.364L211.182 251.021C212.573 252.843 215.181 253.189 217.004 251.799C218.826 250.408 219.172 247.8 217.781 245.977L192.65 213.101C191.684 213.918 190.765 214.9 189.901 215.599H189.909Z" fill="#C1660C"/>
<path d="M93.2499 222.535L131.052 267.848C131.861 268.822 131.194 270.299 129.929 270.323C122.348 270.488 115.113 267.188 110.25 261.367L81.0969 226.432L93.2499 222.528V222.535Z" fill="#C1660C"/>
<path d="M94.5624 219.236C95.9057 216.243 94.5624 212.716 91.5614 211.372C88.5605 210.029 85.0411 211.372 83.6977 214.373C82.3543 217.366 83.6977 220.894 86.6986 222.237C89.6917 223.58 93.219 222.237 94.5624 219.236ZM100.988 222.111C98.0582 228.663 90.3752 231.593 83.8234 228.663C77.2716 225.733 74.3414 218.05 77.2716 211.498C80.2018 204.946 87.8849 202.016 94.4367 204.946C100.988 207.876 103.919 215.559 100.988 222.111Z" fill="#C1660C"/>
<path d="M83.0141 245.412L141.988 243.401C143.253 243.361 143.905 241.877 143.08 240.91C138.146 235.152 130.872 231.947 123.291 232.206L77.8135 233.746L83.0062 245.412H83.0141Z" fill="#F48C12"/>
<path d="M100.54 241.641C101.577 242.042 102.748 241.523 103.148 240.478C103.549 239.441 103.031 238.271 101.986 237.87C100.949 237.469 99.7782 237.988 99.3775 239.033C98.9769 240.07 99.4954 241.24 100.54 241.641Z" stroke="#C1660C" stroke-width="2" stroke-miterlimit="10"/>
<path d="M81.4271 248.585C82.7704 245.592 81.4271 242.065 78.4262 240.722C75.4331 239.378 71.9058 240.722 70.5624 243.723C69.2191 246.716 70.5624 250.243 73.5634 251.586C76.5565 252.93 80.0837 251.586 81.4271 248.585ZM87.8532 251.461C84.923 258.012 77.2399 260.943 70.6881 258.012C64.1364 255.082 61.2061 247.399 64.1364 240.847C67.0666 234.296 74.7496 231.365 81.3014 234.296C87.8532 237.226 90.7834 244.909 87.8532 251.461Z" fill="#F48C12"/>
<path d="M98.2155 123.646C103.582 123.646 107.933 119.295 107.933 113.928C107.933 108.561 103.582 104.211 98.2155 104.211C92.8486 104.211 88.4978 108.561 88.4978 113.928C88.4978 119.295 92.8486 123.646 98.2155 123.646Z" fill="white"/>
<path d="M186.617 161.841C191.984 161.841 196.335 157.49 196.335 152.123C196.335 146.757 191.984 142.406 186.617 142.406C181.25 142.406 176.9 146.757 176.9 152.123C176.9 157.49 181.25 161.841 186.617 161.841Z" fill="white"/>
<path d="M199.265 154.598C204.632 154.598 208.983 150.247 208.983 144.88C208.983 139.513 204.632 135.163 199.265 135.163C193.898 135.163 189.548 139.513 189.548 144.88C189.548 150.247 193.898 154.598 199.265 154.598Z" fill="white"/>
<path d="M205.19 121.593C205.964 118.325 203.943 115.049 200.675 114.274C197.407 113.5 194.131 115.522 193.356 118.789C192.582 122.057 194.604 125.333 197.871 126.108C201.139 126.882 204.415 124.861 205.19 121.593Z" stroke="white" stroke-width="4" stroke-miterlimit="10"/>
<path d="M75.6063 149.877C78.9644 149.877 81.6867 147.154 81.6867 143.796C81.6867 140.438 78.9644 137.716 75.6063 137.716C72.2482 137.716 69.5259 140.438 69.5259 143.796C69.5259 147.154 72.2482 149.877 75.6063 149.877Z" stroke="white" stroke-width="4" stroke-miterlimit="10"/>
<path d="M135.661 70.6455C136.543 67.4053 134.632 64.0634 131.392 63.1813C128.151 62.2991 124.81 64.2107 123.927 67.4509C123.045 70.6911 124.957 74.0329 128.197 74.915C131.437 75.7972 134.779 73.8856 135.661 70.6455Z" stroke="white" stroke-width="4" stroke-miterlimit="10"/>
<path d="M184.693 147.433C190.06 147.433 194.41 143.083 194.41 137.716C194.41 132.349 190.06 127.998 184.693 127.998C179.326 127.998 174.975 132.349 174.975 137.716C174.975 143.083 179.326 147.433 184.693 147.433Z" fill="white"/>
<path d="M83.7841 123.646C89.151 123.646 93.5018 119.295 93.5018 113.928C93.5018 108.561 89.151 104.211 83.7841 104.211C78.4172 104.211 74.0664 108.561 74.0664 113.928C74.0664 119.295 78.4172 123.646 83.7841 123.646Z" fill="white"/>
<path d="M95.1025 137.241C100.067 135.203 102.44 129.526 100.402 124.561C98.3633 119.596 92.6861 117.224 87.7213 119.262C82.7565 121.3 80.384 126.978 82.4223 131.942C84.4605 136.907 90.1376 139.28 95.1025 137.241Z" fill="white"/>
<path d="M81.1524 85.9064L79.1256 85.1601L78.3793 83.1333C78.1829 82.5991 77.4366 82.5991 77.2402 83.1333L76.4939 85.1601L74.4671 85.9064C73.9329 86.1028 73.9329 86.8491 74.4671 87.0455L76.4939 87.7918L77.2402 89.8186C77.4366 90.3528 78.1829 90.3528 78.3793 89.8186L79.1256 87.7918L81.1524 87.0455C81.6866 86.8491 81.6866 86.1028 81.1524 85.9064Z" fill="white"/>
<path d="M210.9 172.344L208.873 171.598L208.127 169.571C207.93 169.037 207.184 169.037 206.988 169.571L206.241 171.598L204.215 172.344C203.68 172.541 203.68 173.287 204.215 173.484L206.241 174.23L206.988 176.257C207.184 176.791 207.93 176.791 208.127 176.257L208.873 174.23L210.9 173.484C211.434 173.287 211.434 172.541 210.9 172.344Z" fill="white"/>
<path d="M218.457 186.163L216.431 185.417L215.684 183.39C215.488 182.856 214.742 182.856 214.545 183.39L213.799 185.417L211.772 186.163C211.238 186.359 211.238 187.106 211.772 187.302L213.799 188.048L214.545 190.075C214.742 190.609 215.488 190.609 215.684 190.075L216.431 188.048L218.457 187.302C218.992 187.106 218.992 186.359 218.457 186.163Z" fill="white"/>
</svg>
