<svg width="13" height="13" viewBox="0 0 13 13" fill="none" xmlns="http://www.w3.org/2000/svg">
<path d="M4.6243 2.06901C5.26861 0.327773 7.73139 0.327774 8.3757 2.06901L8.74672 3.07166C8.94929 3.61909 9.38091 4.05071 9.92835 4.25329L10.931 4.6243C12.6722 5.26861 12.6722 7.73139 10.931 8.3757L9.92834 8.74672C9.38091 8.94929 8.94929 9.38091 8.74672 9.92835L8.3757 10.931C7.73139 12.6722 5.26861 12.6722 4.6243 10.931L4.25328 9.92834C4.05071 9.38091 3.61909 8.94929 3.07165 8.74672L2.06901 8.3757C0.327773 7.73139 0.327774 5.26861 2.06901 4.6243L3.07166 4.25328C3.61909 4.05071 4.05071 3.61909 4.25329 3.07165L4.6243 2.06901Z" fill="#F48C12"/>
</svg>
