<svg width="41" height="40" viewBox="0 0 41 40" fill="none" xmlns="http://www.w3.org/2000/svg">
<g id="MasterCard">
<g id="Symbol">
<path id="Vector" d="M26.3374 10.2984H15.5212V29.7353H26.3374V10.2984Z" fill="#FF5F00"/>
<path id="Vector_2" d="M16.2079 20.0176C16.2062 18.1456 16.6304 16.2979 17.4484 14.6141C18.2663 12.9304 19.4567 11.4548 20.9292 10.2991C19.1057 8.86575 16.9156 7.97437 14.6094 7.72685C12.3032 7.47932 9.97393 7.88564 7.88774 8.89935C5.80155 9.91307 4.04265 11.4933 2.81209 13.4594C1.58153 15.4255 0.928955 17.6981 0.928955 20.0176C0.928955 22.337 1.58153 24.6097 2.81209 26.5758C4.04265 28.5418 5.80155 30.1221 7.88774 31.1358C9.97393 32.1495 12.3032 32.5558 14.6094 32.3083C16.9156 32.0608 19.1057 31.1694 20.9292 29.736C19.4567 28.5803 18.2663 27.1047 17.4484 25.421C16.6304 23.7372 16.2062 21.8895 16.2079 20.0176Z" fill="#EB001B"/>
<path id="Vector_3" d="M40.9291 20.0176C40.9292 22.337 40.2767 24.6096 39.0462 26.5757C37.8157 28.5418 36.0568 30.122 33.9707 31.1357C31.8845 32.1495 29.5553 32.5558 27.2491 32.3083C24.9429 32.0608 22.7529 31.1694 20.9294 29.736C22.4007 28.5791 23.5901 27.1033 24.4079 25.4198C25.2258 23.7364 25.6507 21.8892 25.6507 20.0176C25.6507 18.1459 25.2258 16.2988 24.4079 14.6153C23.5901 12.9318 22.4007 11.456 20.9294 10.2991C22.7529 8.86575 24.9429 7.97437 27.2491 7.72685C29.5553 7.47932 31.8845 7.88565 33.9707 8.89937C36.0568 9.9131 37.8157 11.4933 39.0462 13.4594C40.2767 15.4255 40.9292 17.6981 40.9291 20.0176Z" fill="#F79E1B"/>
<path id="Vector_4" d="M39.7496 27.6769V27.279H39.9101V27.1979H39.5015V27.279H39.662V27.6769H39.7496ZM40.543 27.6769V27.1971H40.4177L40.2737 27.5272L40.1296 27.1971H40.0042V27.6769H40.0927V27.315L40.2278 27.627H40.3195L40.4546 27.3142V27.6769H40.543Z" fill="#F79E1B"/>
</g>
</g>
</svg>
