<svg width="40" height="40" viewBox="0 0 40 40" fill="none" xmlns="http://www.w3.org/2000/svg">
<g id="PayPal">
<g id="symbol">
<path id="Vector" d="M15.2399 32.1187L15.6905 29.2565L14.6868 29.2332H9.8938L13.2247 8.11323C13.235 8.04947 13.2686 7.99002 13.3177 7.9478C13.3668 7.90559 13.4297 7.88232 13.4952 7.88232H21.5769C24.2598 7.88232 26.1114 8.44063 27.0781 9.5426C27.5313 10.0595 27.8199 10.5998 27.9595 11.1943C28.1059 11.818 28.1085 12.5633 27.9655 13.4723L27.9552 13.5386V14.121L28.4084 14.3778C28.79 14.5803 29.0933 14.812 29.3259 15.0774C29.7137 15.5194 29.9644 16.0812 30.0704 16.7472C30.1798 17.4321 30.1436 18.2472 29.9644 19.1699C29.7576 20.2314 29.4233 21.1559 28.9718 21.9123C28.5566 22.6094 28.0275 23.1875 27.3994 23.6355C26.7998 24.0611 26.0873 24.3842 25.2817 24.591C24.5011 24.7943 23.6111 24.8969 22.6349 24.8969H22.0059C21.5562 24.8969 21.1194 25.0588 20.7765 25.3492C20.4327 25.6456 20.2052 26.0505 20.1354 26.4934L20.0881 26.751L19.2919 31.7956L19.2558 31.9808C19.2463 32.0394 19.2299 32.0687 19.2058 32.0885C19.1843 32.1066 19.1532 32.1187 19.1231 32.1187H15.2399Z" fill="#253B80"/>
<path id="Vector_2" d="M28.8375 13.6058C28.8134 13.76 28.7858 13.9177 28.7548 14.0796C27.689 19.5516 24.0428 21.4419 19.386 21.4419H17.0149C16.4454 21.4419 15.9655 21.8554 15.8767 22.4172L14.6628 30.1163L14.319 32.2987C14.2613 32.6674 14.5456 33 14.9178 33H19.1232C19.6212 33 20.0442 32.6381 20.1226 32.147L20.164 31.9334L20.9558 26.9086L21.0066 26.6329C21.0841 26.1401 21.508 25.7782 22.006 25.7782H22.635C26.7094 25.7782 29.899 24.124 30.8312 19.337C31.2207 17.3373 31.0191 15.6675 29.9886 14.4932C29.6767 14.1391 29.2899 13.8453 28.8375 13.6058Z" fill="#179BD7"/>
<path id="Vector_3" d="M27.7226 13.1612C27.5598 13.1138 27.3918 13.0708 27.2195 13.032C27.0463 12.9941 26.8688 12.9605 26.6861 12.9312C26.0468 12.8278 25.3464 12.7787 24.5959 12.7787H18.2616C18.1056 12.7787 17.9574 12.814 17.8247 12.8778C17.5327 13.0182 17.3156 13.2948 17.263 13.6334L15.9155 22.1682L15.8767 22.4172C15.9655 21.8555 16.4454 21.4419 17.0149 21.4419H19.3859C24.0428 21.4419 27.689 19.5507 28.7548 14.0797C28.7867 13.9177 28.8134 13.76 28.8375 13.6058C28.5678 13.4628 28.2758 13.3404 27.9613 13.2362C27.8837 13.2103 27.8036 13.1854 27.7226 13.1612Z" fill="#222D65"/>
<path id="Vector_4" d="M17.263 13.6333C17.3155 13.2947 17.5327 13.0182 17.8247 12.8786C17.9583 12.8148 18.1056 12.7795 18.2616 12.7795H24.5959C25.3464 12.7795 26.0468 12.8286 26.6861 12.932C26.8688 12.9613 27.0463 12.9949 27.2194 13.0328C27.3918 13.0716 27.5598 13.1147 27.7226 13.162C27.8036 13.1862 27.8837 13.2112 27.9621 13.2361C28.2766 13.3404 28.5687 13.4636 28.8384 13.6058C29.1554 11.5836 28.8358 10.2068 27.7424 8.9601C26.5371 7.5876 24.3616 7 21.5778 7H13.4961C12.9275 7 12.4424 7.41356 12.3545 7.97617L8.98834 29.3133C8.922 29.7355 9.24768 30.1163 9.6733 30.1163H14.6627L15.9155 22.1682L17.263 13.6333Z" fill="#253B80"/>
</g>
</g>
</svg>
