<svg width="41" height="40" viewBox="0 0 41 40" fill="none" xmlns="http://www.w3.org/2000/svg">
<g id="Visa">
<path id="Text" d="M20.6633 13.7438L17.991 26.2375H14.7586L17.4312 13.7438H20.6633ZM34.2616 21.8111L35.9628 17.1195L36.9418 21.8111H34.2616ZM37.8692 26.2375H40.8579L38.2468 13.7438H35.4899C34.8686 13.7438 34.3448 14.104 34.113 14.6596L29.2631 26.2375H32.6577L33.3315 24.3716H37.4777L37.8692 26.2375ZM29.4315 22.1587C29.4455 18.8614 24.8733 18.6788 24.9039 17.2055C24.9138 16.7578 25.3409 16.281 26.2744 16.159C26.7372 16.0995 28.0144 16.0511 29.4621 16.7182L30.0283 14.0678C29.2508 13.7865 28.2501 13.5156 27.005 13.5156C23.8097 13.5156 21.562 15.2129 21.544 17.6453C21.5235 19.444 23.1496 20.4469 24.3723 21.046C25.6329 21.6583 26.0552 22.0508 26.049 22.5979C26.0403 23.4362 25.0439 23.8074 24.116 23.8214C22.4901 23.8467 21.5476 23.3819 20.7965 23.0318L20.2098 25.7707C20.9662 26.1169 22.36 26.4182 23.8032 26.4336C27.2003 26.4336 29.4214 24.7563 29.4315 22.1587ZM16.0447 13.7438L10.8077 26.2375H7.39152L4.81416 16.2666C4.65792 15.6535 4.52163 15.4281 4.04646 15.169C3.2692 14.747 1.98614 14.3522 0.85791 14.1066L0.934344 13.7438H6.43414C7.13469 13.7438 7.76498 14.21 7.92543 15.017L9.28689 22.2472L12.6491 13.7438H16.0447Z" fill="#1434CB"/>
</g>
</svg>
